<svg xmlns="http://www.w3.org/2000/svg" xmlns:xlink="http://www.w3.org/1999/xlink" viewBox="0 0 61 61"><defs><clipPath id="3a366826-ec29-43ec-aec9-8094039075bb" transform="translate(0 0)"><rect width="61" height="61" style="fill:none"/></clipPath></defs><title>advantages-item-2</title><g id="5a614769-9f4d-4c12-a6e9-97faf83f6041" data-name="Layer 2"><g id="6886bc74-dd64-49d7-a97f-ec2bb74d9b3c" data-name="Layer 1"><g style="clip-path:url(#3a366826-ec29-43ec-aec9-8094039075bb)"><g style="clip-path:url(#3a366826-ec29-43ec-aec9-8094039075bb)"><path d="M42.5,47.5h-24a5,5,0,0,1-5-5v-24a5,5,0,0,1,5-5h24a5,5,0,0,1,5,5v24a5,5,0,0,1-5,5" transform="translate(0 0)" style="fill:#ffd740"/><rect x="13.5" y="13.5" width="34" height="34" rx="5" ry="5" style="fill:none;stroke:#263238;stroke-linecap:round;stroke-linejoin:round"/><path d="M39,16.5h3A2.5,2.5,0,0,1,44.5,19v3" transform="translate(0 0)" style="fill:none;stroke:#263238;stroke-linecap:round;stroke-linejoin:round"/><polygon points="25.5 39.5 29.5 30.5 25.5 30.5 35.5 21.5 31.5 30.5 35.5 30.5 25.5 39.5" style="fill:#fff"/><polygon points="25.5 39.5 29.5 30.5 25.5 30.5 35.5 21.5 31.5 30.5 35.5 30.5 25.5 39.5" style="fill:none;stroke:#263238;stroke-linecap:round;stroke-linejoin:round"/><path d="M21.5,13.5v-5a1,1,0,0,1,2,0v5" transform="translate(0 0)" style="fill:none;stroke:#263238;stroke-linecap:round;stroke-linejoin:round"/><path d="M29.5,13.5v-5a1,1,0,0,1,2,0v5" transform="translate(0 0)" style="fill:none;stroke:#263238;stroke-linecap:round;stroke-linejoin:round"/><path d="M37.5,13.5v-5a1,1,0,0,1,2,0v5" transform="translate(0 0)" style="fill:none;stroke:#263238;stroke-linecap:round;stroke-linejoin:round"/><line x1="20.5" y1="60.5" x2="19.5" y2="60.5" style="fill:none;stroke:#263238;stroke-linecap:round;stroke-linejoin:round"/><line x1="41.5" y1="60.5" x2="22.5" y2="60.5" style="fill:none;stroke:#263238;stroke-linecap:round;stroke-linejoin:round"/><line x1="40.5" y1="0.5" x2="41.5" y2="0.5" style="fill:none;stroke:#263238;stroke-linecap:round;stroke-linejoin:round"/><line x1="19.5" y1="0.5" x2="38.5" y2="0.5" style="fill:none;stroke:#263238;stroke-linecap:round;stroke-linejoin:round"/><line x1="60.5" y1="40.5" x2="60.5" y2="41.5" style="fill:none;stroke:#263238;stroke-linecap:round;stroke-linejoin:round"/><line x1="60.5" y1="19.5" x2="60.5" y2="38.5" style="fill:none;stroke:#263238;stroke-linecap:round;stroke-linejoin:round"/><line x1="0.5" y1="20.5" x2="0.5" y2="19.5" style="fill:none;stroke:#263238;stroke-linecap:round;stroke-linejoin:round"/><line x1="0.5" y1="41.5" x2="0.5" y2="22.5" style="fill:none;stroke:#263238;stroke-linecap:round;stroke-linejoin:round"/><path d="M41.5,9.5h5a5,5,0,0,1,5,5v5" transform="translate(0 0)" style="fill:none;stroke:#263238;stroke-linecap:round;stroke-linejoin:round"/><line x1="33.5" y1="9.5" x2="35.5" y2="9.5" style="fill:none;stroke:#263238;stroke-linecap:round;stroke-linejoin:round"/><line x1="25.5" y1="9.5" x2="27.5" y2="9.5" style="fill:none;stroke:#263238;stroke-linecap:round;stroke-linejoin:round"/><path d="M9.5,19.5v-5a5,5,0,0,1,5-5h5" transform="translate(0 0)" style="fill:none;stroke:#263238;stroke-linecap:round;stroke-linejoin:round"/><path d="M39.5,47.5v5a1,1,0,0,1-2,0v-5" transform="translate(0 0)" style="fill:none;stroke:#263238;stroke-linecap:round;stroke-linejoin:round"/><path d="M31.5,47.5v5a1,1,0,0,1-2,0v-5" transform="translate(0 0)" style="fill:none;stroke:#263238;stroke-linecap:round;stroke-linejoin:round"/><path d="M23.5,47.5v5a1,1,0,0,1-2,0v-5" transform="translate(0 0)" style="fill:none;stroke:#263238;stroke-linecap:round;stroke-linejoin:round"/><path d="M19.5,51.5h-5a5,5,0,0,1-5-5v-5" transform="translate(0 0)" style="fill:none;stroke:#263238;stroke-linecap:round;stroke-linejoin:round"/><line x1="27.5" y1="51.5" x2="25.5" y2="51.5" style="fill:none;stroke:#263238;stroke-linecap:round;stroke-linejoin:round"/><line x1="35.5" y1="51.5" x2="33.5" y2="51.5" style="fill:none;stroke:#263238;stroke-linecap:round;stroke-linejoin:round"/><path d="M51.5,41.5v5a5,5,0,0,1-5,5h-5" transform="translate(0 0)" style="fill:none;stroke:#263238;stroke-linecap:round;stroke-linejoin:round"/><path d="M47.5,21.5h5a1,1,0,1,1,0,2h-5" transform="translate(0 0)" style="fill:none;stroke:#263238;stroke-linecap:round;stroke-linejoin:round"/><path d="M47.5,29.5h5a1,1,0,0,1,0,2h-5" transform="translate(0 0)" style="fill:none;stroke:#263238;stroke-linecap:round;stroke-linejoin:round"/><path d="M47.5,37.5h5a1,1,0,0,1,0,2h-5" transform="translate(0 0)" style="fill:none;stroke:#263238;stroke-linecap:round;stroke-linejoin:round"/><line x1="51.5" y1="33.5" x2="51.5" y2="35.5" style="fill:none;stroke:#263238;stroke-linecap:round;stroke-linejoin:round"/><line x1="51.5" y1="25.5" x2="51.5" y2="27.5" style="fill:none;stroke:#263238;stroke-linecap:round;stroke-linejoin:round"/><path d="M13.5,39.5h-5a1,1,0,0,1,0-2h5" transform="translate(0 0)" style="fill:none;stroke:#263238;stroke-linecap:round;stroke-linejoin:round"/><path d="M13.5,31.5h-5a1,1,0,0,1,0-2h5" transform="translate(0 0)" style="fill:none;stroke:#263238;stroke-linecap:round;stroke-linejoin:round"/><path d="M13.5,23.5h-5a1,1,0,0,1,0-2h5" transform="translate(0 0)" style="fill:none;stroke:#263238;stroke-linecap:round;stroke-linejoin:round"/><line x1="9.5" y1="27.5" x2="9.5" y2="25.5" style="fill:none;stroke:#263238;stroke-linecap:round;stroke-linejoin:round"/><line x1="9.5" y1="35.5" x2="9.5" y2="33.5" style="fill:none;stroke:#263238;stroke-linecap:round;stroke-linejoin:round"/></g></g></g></g></svg>