<svg xmlns="http://www.w3.org/2000/svg" xmlns:xlink="http://www.w3.org/1999/xlink" viewBox="0 0 61 61"><defs><clipPath id="929d9e88-976d-49a4-b75e-3cafbb7a73c2" transform="translate(0 0)"><rect width="61" height="61" style="fill:none"/></clipPath></defs><title>advantages-item-4</title><g id="1a3e9169-e790-42ba-9687-da3f72f89468" data-name="Layer 2"><g id="8671a43c-4969-43d4-b475-fb6e558d11f1" data-name="Layer 1"><g style="clip-path:url(#929d9e88-976d-49a4-b75e-3cafbb7a73c2)"><g style="clip-path:url(#929d9e88-976d-49a4-b75e-3cafbb7a73c2)"><rect x="22.5" y="3.5" width="12" height="4" rx="1" ry="1" style="fill:none;stroke:#263238;stroke-linecap:round;stroke-linejoin:round"/><line x1="25.5" y1="7.5" x2="25.5" y2="9.5" style="fill:none;stroke:#263238;stroke-linecap:round;stroke-linejoin:round"/><line x1="31.5" y1="9.5" x2="31.5" y2="7.5" style="fill:none;stroke:#263238;stroke-linecap:round;stroke-linejoin:round"/><circle cx="28.5" cy="32.5" r="21" style="fill:none;stroke:#263238;stroke-linecap:round;stroke-linejoin:round"/><path d="M28.5,17.5h0v6a9,9,0,1,1-6.36,15.36l-4.24,4.24A15,15,0,1,0,28.5,17.5" transform="translate(0 0)" style="fill:#3eafb7"/><polyline points="28.5 16.5 28.5 32.5 17.19 43.81" style="fill:none;stroke:#263238;stroke-linecap:round;stroke-linejoin:round"/><path d="M16.94,41.26A14.5,14.5,0,0,1,26.5,18.14" transform="translate(0 0)" style="fill:none;stroke:#263238;stroke-linecap:round;stroke-linejoin:round"/><line x1="47.59" y1="16.24" x2="46.18" y2="17.65" style="fill:none;stroke:#263238;stroke-linecap:round;stroke-linejoin:round"/><line x1="43.35" y1="14.82" x2="44.76" y2="13.41" style="fill:none;stroke:#263238;stroke-linecap:round;stroke-linejoin:round"/><rect x="45.74" y="10.76" width="3" height="6" rx="1" ry="1" transform="translate(4.1 37.43) rotate(-44.99)" style="fill:none;stroke:#263238;stroke-linecap:round;stroke-linejoin:round"/><path d="M49.5.5a11,11,0,0,1,11,11" transform="translate(0 0)" style="fill:none;stroke:#263238;stroke-linecap:round;stroke-linejoin:round"/><path d="M49.5,4.5a7,7,0,0,1,7,7" transform="translate(0 0)" style="fill:none;stroke:#263238;stroke-linecap:round;stroke-linejoin:round"/><path d="M49.5,8.5a3,3,0,0,1,3,3" transform="translate(0 0)" style="fill:none;stroke:#263238;stroke-linecap:round;stroke-linejoin:round"/><path d="M.5,32.5A28,28,0,0,1,19.5,6" transform="translate(0 0)" style="fill:none;stroke:#263238;stroke-linecap:round;stroke-linejoin:round"/><line x1="0.5" y1="34.5" x2="0.5" y2="35.5" style="fill:none;stroke:#263238;stroke-linecap:round;stroke-linejoin:round"/><path d="M56.5,32.5a28,28,0,0,1-28,28" transform="translate(0 0)" style="fill:none;stroke:#263238;stroke-linecap:round;stroke-linejoin:round"/><line x1="56.5" y1="29.5" x2="56.5" y2="30.5" style="fill:none;stroke:#263238;stroke-linecap:round;stroke-linejoin:round"/><line x1="4.07" y1="47.83" x2="8.07" y2="47.83" style="fill:none;stroke:#263238;stroke-linecap:round;stroke-linejoin:round"/><line x1="6.07" y1="45.83" x2="6.07" y2="49.83" style="fill:none;stroke:#263238;stroke-linecap:round;stroke-linejoin:round"/><line x1="11.07" y1="54.33" x2="15.07" y2="54.33" style="fill:none;stroke:#263238;stroke-linecap:round;stroke-linejoin:round"/><line x1="13.07" y1="52.33" x2="13.07" y2="56.33" style="fill:none;stroke:#263238;stroke-linecap:round;stroke-linejoin:round"/></g></g></g></g></svg>