<svg xmlns="http://www.w3.org/2000/svg" xmlns:xlink="http://www.w3.org/1999/xlink" viewBox="0 0 60 64"><defs><clipPath id="8e2faa8c-c39e-45a3-9e16-6d1e1a778a3b"><rect width="60" height="64" style="fill:none"/></clipPath></defs><title>advantages-item-1</title><g id="c4b28c37-8f41-4a50-ac03-cd53f7d37df5" data-name="Layer 2"><g id="34fdf5dc-9b15-46ff-a2ee-b6deba54288b" data-name="Layer 1"><g style="clip-path:url(#8e2faa8c-c39e-45a3-9e16-6d1e1a778a3b)"><path d="M48.44,35.5A19.94,19.94,0,1,1,28.5,15.56,19.94,19.94,0,0,1,48.44,35.5" style="fill:#3eafb7"/><polygon points="47.5 24.5 51.5 12.5 45.5 12.5 57.5 0.5 53.5 12.5 59.5 12.5 47.5 24.5" style="fill:#ffd740"/><polygon points="47.5 24.5 51.5 12.5 45.5 12.5 57.5 0.5 53.5 12.5 59.5 12.5 47.5 24.5" style="fill:none;stroke:#263238;stroke-linecap:round;stroke-linejoin:round"/><path d="M31,43.5H26A7.5,7.5,0,0,1,18.5,36V27.5h20V36A7.5,7.5,0,0,1,31,43.5" style="fill:#fff"/><path d="M31,43.5H26A7.5,7.5,0,0,1,18.5,36V27.5h20V36A7.5,7.5,0,0,1,31,43.5Z" style="fill:none;stroke:#263238;stroke-linecap:round;stroke-linejoin:round"/><polyline points="33.5 30.5 35.5 30.5 35.5 32.5" style="fill:#fff"/><polyline points="33.5 30.5 35.5 30.5 35.5 32.5" style="fill:none;stroke:#263238;stroke-linecap:round;stroke-linejoin:round"/><polyline points="27 57.5 27 46.5 30 46.5 30 57.5" style="fill:none;stroke:#263238;stroke-linecap:round;stroke-linejoin:round"/><path d="M23.5,23.5v-8a2,2,0,1,0-4,0v8Z" style="fill:#fff"/><path d="M23.5,23.5v-8a2,2,0,1,0-4,0v8Z" style="fill:none;stroke:#263238;stroke-linecap:round;stroke-linejoin:round"/><path d="M37.5,23.5v-8a2,2,0,0,0-4,0v8Z" style="fill:#fff"/><path d="M37.5,23.5v-8a2,2,0,0,0-4,0v8Z" style="fill:none;stroke:#263238;stroke-linecap:round;stroke-linejoin:round"/><path d="M39.5,27.5h-22a1,1,0,0,1-1-1v-2a1,1,0,0,1,1-1h22a1,1,0,0,1,1,1v2a1,1,0,0,1-1,1" style="fill:#fff"/><rect x="16.5" y="23.5" width="24" height="4" rx="1" ry="1" style="fill:none;stroke:#263238;stroke-linecap:round;stroke-linejoin:round"/><path d="M30.5,43.5h-4a1,1,0,0,0-1,1v1a1,1,0,0,0,1,1h4a1,1,0,0,0,1-1v-1a1,1,0,0,0-1-1" style="fill:#fff"/><rect x="25.5" y="43.5" width="6" height="3" rx="1" ry="1" style="fill:none;stroke:#263238;stroke-linecap:round;stroke-linejoin:round"/><line x1="23.53" y1="38" x2="33.53" y2="38" style="fill:#fff"/><line x1="23.53" y1="38" x2="33.53" y2="38" style="fill:none;stroke:#263238;stroke-linecap:round;stroke-linejoin:round"/><line x1="23.53" y1="35" x2="33.53" y2="35" style="fill:#fff"/><line x1="23.53" y1="35" x2="33.53" y2="35" style="fill:none;stroke:#263238;stroke-linecap:round;stroke-linejoin:round"/><path d="M.5,35.5a28,28,0,0,1,28-28" style="fill:none;stroke:#263238;stroke-linecap:round;stroke-linejoin:round"/><line x1="30.5" y1="7.5" x2="31.5" y2="7.5" style="fill:none;stroke:#263238;stroke-linecap:round;stroke-linejoin:round"/><path d="M56.5,35.5a28,28,0,0,1-28,28" style="fill:none;stroke:#263238;stroke-linecap:round;stroke-linejoin:round"/><line x1="25.5" y1="63.5" x2="26.5" y2="63.5" style="fill:none;stroke:#263238;stroke-linecap:round;stroke-linejoin:round"/><line x1="14.56" y1="45.44" x2="10.56" y2="45.44" style="fill:none;stroke:#263238;stroke-linecap:round;stroke-linejoin:round"/><line x1="12.56" y1="43.44" x2="12.56" y2="47.44" style="fill:none;stroke:#263238;stroke-linecap:round;stroke-linejoin:round"/><line x1="7.56" y1="51.94" x2="3.56" y2="51.94" style="fill:none;stroke:#263238;stroke-linecap:round;stroke-linejoin:round"/><line x1="5.56" y1="49.94" x2="5.56" y2="53.94" style="fill:none;stroke:#263238;stroke-linecap:round;stroke-linejoin:round"/></g></g></g></svg>