<svg xmlns="http://www.w3.org/2000/svg" xmlns:xlink="http://www.w3.org/1999/xlink" viewBox="0 0 27 27"><defs><clipPath id="3bae3f92-6137-4212-9268-2d83fc914202"><path d="M6.76,18.79A5.61,5.61,0,0,0,8,15.5V10a5.5,5.5,0,0,1,11,0v5.5a5.6,5.6,0,0,0,1.24,3.29L21.3,20H5.71ZM6,10v5.5a3.66,3.66,0,0,1-.74,2L2.75,20.34A1,1,0,0,0,3.5,22H11a2.5,2.5,0,0,0,5,0h7.5a1,1,0,0,0,.75-1.66l-2.51-2.87a3.66,3.66,0,0,1-.74-2V10A7.5,7.5,0,1,0,6,10" style="fill:#656565"/></clipPath></defs><title>bell</title><g id="f161c045-00df-4158-ba84-1dd4611d014e" data-name="Layer 2"><g id="e8cd1465-a61b-4a56-a395-38ee8aba2e50" data-name="Layer 1"><path d="M6.76,18.79A5.61,5.61,0,0,0,8,15.5V10a5.5,5.5,0,0,1,11,0v5.5a5.6,5.6,0,0,0,1.24,3.29L21.3,20H5.71ZM6,10v5.5a3.66,3.66,0,0,1-.74,2L2.75,20.34A1,1,0,0,0,3.5,22H11a2.5,2.5,0,0,0,5,0h7.5a1,1,0,0,0,.75-1.66l-2.51-2.87a3.66,3.66,0,0,1-.74-2V10A7.5,7.5,0,1,0,6,10" style="fill:#656565"/><g style="clip-path:url(#3bae3f92-6137-4212-9268-2d83fc914202)"><rect width="27" height="27" style="fill:#656565"/></g></g></g></svg>