<svg xmlns="http://www.w3.org/2000/svg" viewBox="0 0 54 60"><title>calc</title><g id="65a556d7-03f5-448a-a136-cf9b30cafc9a" data-name="Layer 2"><g id="d2239910-2972-42cd-8847-6ce8a68f48f8" data-name="Layer 1"><path d="M50.8,8H40V5.73A5.74,5.74,0,0,0,34.27,0H5.73A5.74,5.74,0,0,0,0,5.73V54.27A5.74,5.74,0,0,0,5.73,60H34.27A5.74,5.74,0,0,0,40,54.27V42H50.8A3.21,3.21,0,0,0,54,38.8V11.2A3.21,3.21,0,0,0,50.8,8ZM38,8V54.27A3.74,3.74,0,0,1,34.27,58H5.73A3.74,3.74,0,0,1,2,54.27V5.73A3.74,3.74,0,0,1,5.73,2H34.27A3.74,3.74,0,0,1,38,5.73Zm4,32H40V10h2Zm4,0H44V10h2Zm6-1.2A1.2,1.2,0,0,1,50.8,40H48V10h2.8A1.21,1.21,0,0,1,52,11.2ZM50,13a1,1,0,1,0,1,1A1,1,0,0,0,50,13Zm0,5a1,1,0,1,0,1,1A1,1,0,0,0,50,18ZM5,22H35V9H5ZM7,11H33v9H7Zm4-4a1,1,0,1,0,0-2H5A1,1,0,1,0,5,7ZM6,31h8V24H6Zm2-5h4v3H8Zm8,5h8V24H16Zm2-5h4v3H18Zm8,5h8V24H26Zm2-5h4v3H28ZM6,39h8V32H6Zm2-5h4v3H8Zm8,5h8V32H16Zm2-5h4v3H18Zm8,5h8V32H26Zm2-5h4v3H28ZM6,47h8V40H6Zm2-5h4v3H8Zm8,5h8V40H16Zm2-5h4v3H18ZM6,56h8V49H6Zm2-5h4v3H8Zm8,5h8V49H16Zm2-5h4v3H18Zm8,5h8V40H26Zm2-14h4V54H28ZM21.29,16.29l-1,1a1,1,0,1,0,1.41,1.41l1-1a1,1,0,0,0-1.41-1.41Zm-3.91-4.22A1,1,0,0,0,17,12H17a1,1,0,0,0-.68.29l-1,1A1,1,0,0,0,16,15v3a1,1,0,0,0,2,0V13a1,1,0,0,0-.62-.92Zm9,0A1,1,0,0,0,26,12H26a1,1,0,0,0-.68.29l-1,1A1,1,0,0,0,25,15v3a1,1,0,0,0,2,0V13a1,1,0,0,0-.62-.92Zm4,0A1,1,0,0,0,30,12H30a1,1,0,0,0-.68.29l-1,1A1,1,0,0,0,29,15v3a1,1,0,0,0,2,0V13a1,1,0,0,0-.62-.92Z" style="fill:#616379"/></g></g></svg>