<svg xmlns="http://www.w3.org/2000/svg" viewBox="0 0 49 49"><title>card-online</title><g id="951c1f15-b6aa-49b9-a2d0-25483972c024" data-name="Layer 2"><g id="3b2ab16c-4238-4468-975c-77cbb92cee23" data-name="Layer 1"><path d="M18.35,45H15.19a.5.5,0,0,1,0-1h3.17a.5.5,0,1,1,0,1Z" style="fill:#60637b"/><path d="M12.38,4.52a.44.44,0,0,1-.19,0A.42.42,0,0,1,12,4.37.51.51,0,0,1,11.88,4a.63.63,0,0,1,0-.19A.45.45,0,0,1,12,3.67a.41.41,0,0,1,.16-.11.51.51,0,0,1,.55.11.51.51,0,0,1,0,.7A.49.49,0,0,1,12.38,4.52Z" style="fill:#60637b"/><path d="M21.16,4.52H15.7a.5.5,0,0,1,0-1h5.46a.5.5,0,0,1,0,1Z" style="fill:#60637b"/><path d="M48.5,18.7H16.21a.5.5,0,0,1-.5-.5V14.53a2,2,0,0,1,2-2H47a2,2,0,0,1,2,2V18.2A.5.5,0,0,1,48.5,18.7Zm-31.79-1H48V14.53a1,1,0,0,0-1-1H17.71a1,1,0,0,0-1,1Z" style="fill:#60637b"/><path d="M47,35.25H17.71a2,2,0,0,1-2-2V22.92a.5.5,0,0,1,.5-.5H48.5a.5.5,0,0,1,.5.5V33.25A2,2,0,0,1,47,35.25ZM16.71,23.42v9.83a1,1,0,0,0,1,1H47a1,1,0,0,0,1-1V23.42Z" style="fill:#60637b"/><path d="M42,32.25a3,3,0,0,1-2-.77A3,3,0,0,1,40,27a3,3,0,1,1,2,5.23Zm0-5a2,2,0,0,0,0,4,2,2,0,0,0,0-4Z" style="fill:#60637b"/><path d="M38.66,32.25a3,3,0,1,1,2-5.23.5.5,0,0,1,0,.74,2,2,0,0,0,0,3,.5.5,0,0,1,0,.74A3,3,0,0,1,38.66,32.25Zm0-5A2,2,0,1,0,39.58,31a3,3,0,0,1,0-3.55A2,2,0,0,0,38.66,27.25Z" style="fill:#60637b"/><path d="M48.5,23.42H16.21a.5.5,0,0,1-.5-.5V18.2a.5.5,0,0,1,.5-.5H48.5a.5.5,0,0,1,.5.5v4.72A.5.5,0,0,1,48.5,23.42Zm-31.79-1H48V18.7H16.71Z" style="fill:#60637b"/><path d="M30.92,49H2.63A2.63,2.63,0,0,1,0,46.38V2.63A2.63,2.63,0,0,1,2.63,0H30.92a2.63,2.63,0,0,1,2.62,2.63V13a.5.5,0,0,1-.5.5H17.71a1,1,0,0,0-1,1V33.25a1,1,0,0,0,1,1H33a.5.5,0,0,1,.5.5V46.38A2.63,2.63,0,0,1,30.92,49ZM2.63,1A1.63,1.63,0,0,0,1,2.63V46.38A1.63,1.63,0,0,0,2.63,48H30.92a1.63,1.63,0,0,0,1.62-1.62V35.25H17.71a2,2,0,0,1-2-2V14.53a2,2,0,0,1,2-2H32.54V2.63A1.63,1.63,0,0,0,30.92,1Z" style="fill:#60637b"/><path d="M33,41.11H.5a.5.5,0,0,1-.5-.5V8.39a.5.5,0,0,1,.5-.5H33a.5.5,0,0,1,.5.5V13a.5.5,0,0,1-.5.5H17.71a1,1,0,0,0-1,1V33.25a1,1,0,0,0,1,1H33a.5.5,0,0,1,.5.5v5.86A.5.5,0,0,1,33,41.11Zm-32-1H32.54V35.25H17.71a2,2,0,0,1-2-2V14.53a2,2,0,0,1,2-2H32.54V8.89H1Z" style="fill:#60637b"/></g></g></svg>