<svg xmlns="http://www.w3.org/2000/svg" xmlns:xlink="http://www.w3.org/1999/xlink" viewBox="0 0 53.46 54"><defs><clipPath id="19c92d1e-2019-4b64-a75a-9690f81dbc6b"><rect x="3" y="3" width="48" height="48" style="fill:none"/></clipPath><clipPath id="94f2cfe7-5e7a-451e-bf27-c409cc9a41e2"><path d="M15.08,26.56a2,2,0,0,1-.06-.29L11.38,9H7A2,2,0,0,1,7,5h6a2,2,0,0,1,2,1.59L16.52,14H44a4.35,4.35,0,0,1,4.36,5.35l-2.8,13.79A5.8,5.8,0,0,1,40,37.67l-18-.1A5.85,5.85,0,0,1,16.44,33l-1.36-6.45ZM19.5,28l.86,4.2A1.86,1.86,0,0,0,22,33.57l18,.1a1.81,1.81,0,0,0,1.62-1.33L42.52,28Zm-.82-4H43.33l1.11-5.45c.08-.39-.05-.55-.44-.55H17.45l1.23,6ZM20,49a4,4,0,1,1,4-4,4,4,0,0,1-4,4Zm22,0a4,4,0,1,1,4-4,4,4,0,0,1-4,4Z" style="fill:none;clip-path:url(#19c92d1e-2019-4b64-a75a-9690f81dbc6b)"/></clipPath></defs><title>cart</title><g id="2013b7f2-d82f-4e64-809c-fbbcab98c513" data-name="Layer 2"><g id="69254fb7-5e21-403e-a01f-5c2b5878f3f9" data-name="Layer 1"><g style="clip-path:url(#94f2cfe7-5e7a-451e-bf27-c409cc9a41e2)"><rect width="53.46" height="54"/></g></g></g></svg>