<svg xmlns="http://www.w3.org/2000/svg" xmlns:xlink="http://www.w3.org/1999/xlink" viewBox="0 0 87.86 29.04"><defs><clipPath id="84d49a4e-5654-4d8f-95ff-fc5578db893f" transform="translate(0)"><rect width="87.86" height="29.04" style="fill:none"/></clipPath><clipPath id="7fae50d2-71dd-4efc-8561-15decf3a0a1c" transform="translate(0)"><rect width="87.86" height="29.04" style="fill:none"/></clipPath></defs><title>catalog-item-3</title><g id="aa48a7b8-5072-4687-a3b5-40a33f41c3bf" data-name="Layer 2"><g id="402b63f0-23bf-4ae0-8e73-12fc59386f6e" data-name="Layer 1"><g style="clip-path:url(#84d49a4e-5654-4d8f-95ff-fc5578db893f)"><g style="clip-path:url(#7fae50d2-71dd-4efc-8561-15decf3a0a1c)"><path d="M60.73,11.9c0-3,.53-7.9,4-7.9a3.12,3.12,0,0,1,2.4.95c1.6,1.66,1.9,5.2,1.83,6.84-.12,2.91-1.6,5.93-4.3,8.8-1.55-1.57-4-4.65-4-8.68m-20.94,0c0-3,.53-7.9,4-7.9a3.12,3.12,0,0,1,2.4.95c1.6,1.66,1.9,5.2,1.83,6.84-.12,2.91-1.6,5.93-4.29,8.79-1.55-1.58-4-4.68-4-8.68m-20.87,0c0-3,.53-7.9,4-7.9a3.12,3.12,0,0,1,2.4.95c1.6,1.66,1.9,5.2,1.83,6.84-.12,2.91-1.6,5.93-4.29,8.79-1.55-1.58-4-4.68-4-8.68m68.5,10.16a2,2,0,0,0-2.83-.28c-.35.28-8.13,6.44-16.67,1.22,3.18-3.49,4.93-7.27,5.1-11,0-1.08.12-6.6-2.94-9.77A7.18,7.18,0,0,0,64.77,0c-2.42,0-8.06,1.16-8.06,11.9a16.55,16.55,0,0,0,4.86,11.21A14.38,14.38,0,0,1,47,23c3.18-3.49,4.94-7.27,5.1-11,0-1.08.12-6.6-2.94-9.77A7.18,7.18,0,0,0,43.83,0c-2.42,0-8.06,1.16-8.06,11.9a16.55,16.55,0,0,0,4.86,11.21A14.36,14.36,0,0,1,26.08,23c3.19-3.5,5-7.29,5.12-11.07,0-1.08.12-6.6-2.94-9.77A7.18,7.18,0,0,0,23,0c-2.42,0-8.06,1.16-8.06,11.9a16.55,16.55,0,0,0,4.86,11.21c-8.41,5-16.13-1.05-16.48-1.34a2,2,0,0,0-2.82.29,2,2,0,0,0,.29,2.81,20,20,0,0,0,12,4.17,17.78,17.78,0,0,0,10.16-3.22A20.16,20.16,0,0,0,33.64,29a17.78,17.78,0,0,0,10.19-3.24A20.15,20.15,0,0,0,54.59,29a17.79,17.79,0,0,0,10.25-3.28A17.79,17.79,0,0,0,75.09,29a20,20,0,0,0,12-4.17,2,2,0,0,0,.29-2.81" transform="translate(0)"/></g></g></g></g></svg>