<svg xmlns="http://www.w3.org/2000/svg" viewBox="0 0 36 36"><title>catalog-item-5</title><g id="c36ae48e-6f70-4524-9167-852dd97208ea" data-name="Layer 2"><g id="65d52083-e9f7-4189-a3c5-15e4a21696f8" data-name="Слой 1"><path d="M2.56.5H33.44A2.07,2.07,0,0,1,35.5,2.56V33.44a2.07,2.07,0,0,1-2.06,2.06H2.56A2.07,2.07,0,0,1,.5,33.44V2.56A2.07,2.07,0,0,1,2.56.5Zm30.94,33V2.5H2.5v31ZM6.5,18A11.5,11.5,0,1,1,18,29.5,11.5,11.5,0,0,1,6.5,18Zm21,0A9.5,9.5,0,1,0,18,27.5,9.5,9.5,0,0,0,27.5,18Zm-14,2.5a2,2,0,1,0-2-2,2,2,0,0,0,2,2Zm9,0a2,2,0,1,0-2-2,2,2,0,0,0,2,2Z" style="fill:#7f9091;stroke:#7f9091;stroke-miterlimit:10"/></g></g></svg>