<svg xmlns="http://www.w3.org/2000/svg" xmlns:xlink="http://www.w3.org/1999/xlink" viewBox="0 0 36.77 43.09"><defs><clipPath id="f600db4c-59e8-42cb-b98a-5506718335ba" transform="translate(0 0)"><rect width="36.77" height="43.09" style="fill:none"/></clipPath></defs><title>catalog-item-7</title><g id="761b40b9-9d23-4ec9-bd8b-537eb62b7d1b" data-name="Layer 2"><g id="b74ef45f-3da6-4a00-9ffe-1f8bb07a18f0" data-name="Layer 1"><g style="clip-path:url(#f600db4c-59e8-42cb-b98a-5506718335ba)"><path d="M13.12,36.53H23.65V40H13.12Zm-4.83-7h1.77v4H8.28Zm4.83,0H23.65v4H13.12Zm13.6,0h1.63v4H26.71Zm-13.6-13.6H23.65V26.43H13.12ZM3.07,3.06H5.75v9.77H3.07Zm5.74,0H28.15v9.77H8.81Zm22.4,0H33.7v9.77H31.21ZM1.53,0,0,1.53V14.36l1.53,1.53h8.52V26.43H6.75L5.22,28v7l1.53,1.53h3.3v5l1.53,1.53h13.6l1.53-1.53v-5h3.16L31.4,35V28l-1.53-1.53H26.71V15.89h8.52l1.53-1.53V1.53L35.23,0H1.53Z" transform="translate(0 0)"/></g></g></g></svg>