<svg xmlns="http://www.w3.org/2000/svg" xmlns:xlink="http://www.w3.org/1999/xlink" viewBox="0 0 24.2 48.5"><defs><clipPath id="ddd4f8f4-325d-4a30-b25d-035b745c8e82" transform="translate(0 0)"><rect width="24.2" height="48.5" style="fill:none"/></clipPath></defs><title>catalog-item-9</title><g id="eaddcfb1-d48c-4439-8e6e-41ae7f4d9a4d" data-name="Layer 2"><g id="a316bcb4-4b5f-47d3-9efd-33a8cb02b53c" data-name="Layer 1"><g style="clip-path:url(#ddd4f8f4-325d-4a30-b25d-035b745c8e82)"><g style="clip-path:url(#ddd4f8f4-325d-4a30-b25d-035b745c8e82)"><path d="M20.05,4.85h-2.2V1.25a1,1,0,0,0-1-1H7.45a1,1,0,0,0-1,1v3.6H4.25a4,4,0,0,0-4,4v35.4a4,4,0,0,0,4,4h15.7a4,4,0,0,0,4-4V8.85a3.86,3.86,0,0,0-3.9-4M8.45,2.25h7.4v2.6H8.45Zm13.6,42a2,2,0,0,1-2,2H4.25a2,2,0,0,1-2-2V27.55h19.7v16.7Zm0-18.7H2.25V8.85a2,2,0,0,1,2-2h15.7a2,2,0,0,1,2,2v16.7Z" transform="translate(0 0)"/><path d="M20.05,4.85h-2.2V1.25a1,1,0,0,0-1-1H7.45a1,1,0,0,0-1,1v3.6H4.25a4,4,0,0,0-4,4v35.4a4,4,0,0,0,4,4h15.7a4,4,0,0,0,4-4V8.85A3.86,3.86,0,0,0,20.05,4.85ZM8.45,2.25h7.4v2.6H8.45Zm13.6,42a2,2,0,0,1-2,2H4.25a2,2,0,0,1-2-2V27.55h19.7v16.7Zm0-18.7H2.25V8.85a2,2,0,0,1,2-2h15.7a2,2,0,0,1,2,2v16.7Z" transform="translate(0 0)" style="fill:none;stroke:#000;stroke-miterlimit:10;stroke-width:0.5px"/><path d="M12.15,42a.94.94,0,0,0,1-1v-8.2a1,1,0,0,0-2,0V41a.94.94,0,0,0,1,1" transform="translate(0 0)"/><path d="M12.15,42a.94.94,0,0,0,1-1v-8.2a1,1,0,0,0-2,0V41A.94.94,0,0,0,12.15,42Z" transform="translate(0 0)" style="fill:none;stroke:#000;stroke-miterlimit:10;stroke-width:0.5px"/><path d="M16.25,15.15h-3.1v-3.1a1,1,0,0,0-2,0v3.1H8a1,1,0,0,0,0,2h3.1v3.1a1,1,0,0,0,2,0v-3.1h3.1a.94.94,0,0,0,1-1,1.08,1.08,0,0,0-1-1" transform="translate(0 0)"/><path d="M16.25,15.15h-3.1v-3.1a1,1,0,0,0-2,0v3.1H8a1,1,0,0,0,0,2h3.1v3.1a1,1,0,0,0,2,0v-3.1h3.1a.94.94,0,0,0,1-1A1.08,1.08,0,0,0,16.25,15.15Z" transform="translate(0 0)" style="fill:none;stroke:#000;stroke-miterlimit:10;stroke-width:0.5px"/></g></g></g></g></svg>