<svg xmlns="http://www.w3.org/2000/svg" xmlns:xlink="http://www.w3.org/1999/xlink" viewBox="0 0 51 39"><defs><clipPath id="9ac6ae89-8e4d-48c1-abd3-40de8aa20330" transform="translate(0 0)"><rect width="51" height="39" style="fill:none"/></clipPath></defs><title>catalog-item-11</title><g id="ae0fa40e-f3be-433e-8440-6a210573d08e" data-name="Layer 2"><g id="c2aa5f1d-0613-46d6-a4fb-0b759246bb03" data-name="Layer 1"><g style="clip-path:url(#9ac6ae89-8e4d-48c1-abd3-40de8aa20330)"><g style="clip-path:url(#9ac6ae89-8e4d-48c1-abd3-40de8aa20330)"><path d="M49.5.5H1.5a1,1,0,0,0-1,1v20a1,1,0,0,0,1,1h48a1,1,0,0,0,1-1V1.5a1,1,0,0,0-1-1m-11,20h-26v-6h26Zm10,0h-8v-7a1,1,0,0,0-1-1h-28a1,1,0,0,0-1,1v7h-8V2.5h46Z" transform="translate(0 0)"/><path d="M49.5.5H1.5a1,1,0,0,0-1,1v20a1,1,0,0,0,1,1h48a1,1,0,0,0,1-1V1.5A1,1,0,0,0,49.5.5Zm-11,20h-26v-6h26Zm10,0h-8v-7a1,1,0,0,0-1-1h-28a1,1,0,0,0-1,1v7h-8V2.5h46Z" transform="translate(0 0)" style="fill:none;stroke:#000;stroke-miterlimit:10"/><path d="M23.5,8.5h4a1,1,0,0,0,0-2h-4a1,1,0,0,0,0,2" transform="translate(0 0)"/><path d="M23.5,8.5h4a1,1,0,0,0,0-2h-4a1,1,0,0,0,0,2Z" transform="translate(0 0)" style="fill:none;stroke:#000;stroke-miterlimit:10"/><path d="M25.5,26.5a1,1,0,0,0-1,1v10a1,1,0,0,0,2,0v-10a1,1,0,0,0-1-1" transform="translate(0 0)"/><path d="M25.5,26.5a1,1,0,0,0-1,1v10a1,1,0,0,0,2,0v-10A1,1,0,0,0,25.5,26.5Z" transform="translate(0 0)" style="fill:none;stroke:#000;stroke-miterlimit:10"/><path d="M17.5,26.5a1,1,0,0,0-1,1c0,4.88-2.29,9-5,9a1,1,0,0,0,0,2c3.92,0,7-4.83,7-11a1,1,0,0,0-1-1" transform="translate(0 0)"/><path d="M17.5,26.5a1,1,0,0,0-1,1c0,4.88-2.29,9-5,9a1,1,0,0,0,0,2c3.92,0,7-4.83,7-11A1,1,0,0,0,17.5,26.5Z" transform="translate(0 0)" style="fill:none;stroke:#000;stroke-miterlimit:10"/><path d="M39.5,36.5c-2.71,0-5-4.12-5-9a1,1,0,0,0-2,0c0,6.17,3.07,11,7,11a1,1,0,0,0,0-2" transform="translate(0 0)"/><path d="M39.5,36.5c-2.71,0-5-4.12-5-9a1,1,0,0,0-2,0c0,6.17,3.07,11,7,11a1,1,0,0,0,0-2Z" transform="translate(0 0)" style="fill:none;stroke:#000;stroke-miterlimit:10"/></g></g></g></g></svg>