<svg xmlns="http://www.w3.org/2000/svg" xmlns:xlink="http://www.w3.org/1999/xlink" viewBox="0 0 90 90"><defs><clipPath id="ed5aafa4-fb24-4c15-bdbb-a5605ed831d4"><rect width="90" height="90" style="fill:none"/></clipPath></defs><title>catalog-item-1</title><g id="58d1479e-f450-4b9e-8aa9-2014f90334e0" data-name="Layer 2"><g id="33a64cfc-b0c7-4268-ab3e-583468ffd3a6" data-name="Layer 1"><rect x="43" width="4" height="15"/><rect x="75" y="43" width="15" height="4"/><rect y="43" width="15" height="4"/><rect x="43" y="75" width="4" height="15"/><rect x="16.48" y="10.96" width="4" height="15" transform="translate(-7.64 18.48) rotate(-45)"/><rect x="64.02" y="16.51" width="15" height="4" transform="translate(7.86 55.99) rotate(-45)"/><rect x="10.98" y="69.49" width="15" height="4" transform="translate(-45.14 34.01) rotate(-45)"/><rect x="69.52" y="64.04" width="4" height="15" transform="translate(-29.64 71.52) rotate(-45)"/><g style="clip-path:url(#ed5aafa4-fb24-4c15-bdbb-a5605ed831d4)"><path d="M45,34A11,11,0,1,0,56,45,11,11,0,0,0,45,34"/></g></g></g></svg>