<svg xmlns="http://www.w3.org/2000/svg" xmlns:xlink="http://www.w3.org/1999/xlink" viewBox="0 0 66.5 42.04"><defs><clipPath id="56c75843-a49c-4890-b54d-bda32ee18b9a" transform="translate(0)"><rect width="66.5" height="42.04" style="fill:none"/></clipPath></defs><title>envelope</title><g id="91ac2a79-a5d1-41b4-b81a-9ea427ee2531" data-name="Layer 2"><g id="6ffca96f-f303-4ab0-a1ae-506a07c6d786" data-name="Layer 1"><g style="clip-path:url(#56c75843-a49c-4890-b54d-bda32ee18b9a)"><path d="M62.4,0h0L4.11.06C1.8.06,0,2.23,0,5V37.08c0,2.78,1.8,5,4.1,5H62.4c2.3,0,4.1-2.18,4.1-5V5c0-2.78-1.8-5-4.1-5M3.5,5.79,22.89,21,3.5,36.31Zm29.75,19L6.32,3.55,60.25,3.5Zm-7.53-1.47,6.44,5.07a1.75,1.75,0,0,0,2.16,0l6.44-5.07,19.4,15.27H6.32ZM43.61,21,63,5.79V36.31Z" transform="translate(0)" style="fill:#3eaeb7"/></g></g></g></svg>