<svg xmlns="http://www.w3.org/2000/svg" xmlns:xlink="http://www.w3.org/1999/xlink" viewBox="0 0 54 50"><defs><clipPath id="153788a2-0902-4f78-bb94-ea081cfedad1"><rect x="3" y="1" width="48" height="48" style="fill:none"/></clipPath><clipPath id="d667c376-4d0f-4ce3-8410-855a60d2b02a"><path d="M27.68,8.48A11.46,11.46,0,0,1,36,5c7.28,0,13,5.95,13,14.32,0,5-2.47,9.19-7,13.7-1,1-4,3.72-4.12,3.85q-.64.61-1.37,1.26c-.6.53-1.25,1.08-1.94,1.65-1.4,1.15-2.89,2.31-4.39,3.42l-1.44,1.06-.56.4a2,2,0,0,1-2.3,0l-.56-.4-1.44-1.06c-1.49-1.11-3-2.27-4.39-3.42-.69-.56-1.33-1.11-1.94-1.65s-.95-.85-1.37-1.26C16,36.73,13,34,12,33c-4.56-4.5-7-8.68-7-13.7C5,10.95,10.72,5,18,5a11.46,11.46,0,0,1,8.32,3.48c.24.24.47.49.68.73.21-.24.44-.48.68-.73ZM27.77,40c1.45-1.07,2.89-2.19,4.23-3.3.65-.54,1.26-1.06,1.83-1.55s.87-.79,1.26-1.15c.19-.18,3.15-2.89,4.07-3.8C43,26.34,45,23,45,19.32,45,13.12,41,9,36,9a7.5,7.5,0,0,0-5.49,2.31A9.48,9.48,0,0,0,29.2,13a6.08,6.08,0,0,0-.37.65,2,2,0,0,1-3.65,0A6.08,6.08,0,0,0,24.8,13a9.48,9.48,0,0,0-1.31-1.64A7.5,7.5,0,0,0,18,9c-5,0-9,4.12-9,10.32,0,3.7,2,7,5.84,10.85.92.91,3.88,3.62,4.07,3.8q.58.55,1.26,1.15c.57.5,1.18,1,1.83,1.55,1.34,1.1,2.79,2.22,4.23,3.3l.77.57.77-.57Z" style="fill:none;clip-path:url(#153788a2-0902-4f78-bb94-ea081cfedad1)"/></clipPath></defs><title>Like</title><g id="01c2d8a6-153d-4037-b3d6-0d64aca15370" data-name="Layer 2"><g id="bdecab63-23e1-44c0-9cb0-75c9fd74d274" data-name="Layer 1"><g style="clip-path:url(#d667c376-4d0f-4ce3-8410-855a60d2b02a)"><rect width="54" height="50"/></g></g></g></svg>