<svg xmlns="http://www.w3.org/2000/svg" viewBox="0 0 864 863.9"><title>present</title><g id="69c924de-ea4e-44d7-b0f8-a4ecbc1eb0dc" data-name="Layer 2"><g id="0c451b6a-9aab-4078-8257-3e70ea1e8421" data-name="Layer 1"><path d="M761,413.9V787.8c0,19.5-16.2,36.1-35.7,36.1H139.6c-19.5,0-36.6-16.6-36.6-36.1V413.9Z" style="fill:none;stroke:#3eaeb7;stroke-miterlimit:10;stroke-width:80px"/><path d="M824,295.9v82.5c0,19.5-15.3,35.5-34.8,35.5H75.7A35.81,35.81,0,0,1,40,378.4V295.9c0-19.5,16.2-34,35.7-34H789.2C808.7,261.9,824,276.4,824,295.9Z" style="fill:none;stroke:#3eaeb7;stroke-miterlimit:10;stroke-width:80px"/><line x1="432" y1="261.9" x2="432" y2="823.9" style="fill:none;stroke:#3eaeb7;stroke-miterlimit:10;stroke-width:80px"/><path d="M620.2,167.6c0,51.9-41.9,94.3-93.8,94.3H433V167.4a93.59,93.59,0,0,1,93.6-93.9C578.5,73.5,620.2,115.7,620.2,167.6Z" style="fill:none;stroke:#3eaeb7;stroke-miterlimit:10;stroke-width:80px"/><path d="M211.2,150.9c0,61.1,49.3,111,110.5,111H433.1V150.6C433.1,89.5,383.3,40,322.2,40S211.2,89.8,211.2,150.9Z" style="fill:none;stroke:#3eaeb7;stroke-miterlimit:10;stroke-width:80px"/></g></g></svg>