<svg xmlns="http://www.w3.org/2000/svg" viewBox="0 0 60 59.01"><title>receipt</title><g id="d996f313-a128-4fa6-8394-6061b4314db1" data-name="Layer 2"><g id="b91e7b40-698b-4ecb-bee0-047d12a9d790" data-name="Layer 1"><path d="M56,0H4A4,4,0,0,0,3,7.8V56l3-3,6,6,6-6,6,6,6-6,6,6,6-6,6,6,6-6,3,3V7.8A4,4,0,0,0,56,0ZM55,51.23l-1-1-6,6-6-6-6,6-6-6-6,6-6-6-6,6-6-6-1,1V5H55ZM57,5.69V3H3V5.69A2,2,0,0,1,4,2H56a2,2,0,0,1,1,3.71Zm-13,34H29a1,1,0,1,0,0,2H44a1,1,0,1,0,0-2Zm4.29.29a1,1,0,0,0-.29.71,1,1,0,0,0,.29.71,1,1,0,0,0,1.42,0,1,1,0,0,0,.29-.71,1,1,0,0,0-.29-.71A1.05,1.05,0,0,0,48.29,40ZM49,25.82H34a1,1,0,1,0,0,2H49a1,1,0,1,0,0-2Zm0,7H39a1,1,0,1,0,0,2H49a1,1,0,1,0,0-2Zm-20,2h2a1,1,0,1,0,0-2H29a1,1,0,1,0,0,2Zm16-14.9a1,1,0,0,0-1-1H29a1,1,0,1,0,0,2H44A1,1,0,0,0,45,19.86Zm3.29-.71a1,1,0,0,0-.29.71,1,1,0,0,0,.29.71,1.06,1.06,0,0,0,.71.29,1,1,0,0,0,.71-1.7A1.05,1.05,0,0,0,48.29,19.16Zm-19,7a1,1,0,0,0,0,1.41,1,1,0,0,0,1.42,0,1,1,0,0,0,0-1.41A1.05,1.05,0,0,0,29.29,26.11Zm6.42,8.36a1,1,0,0,0,.29-.71,1,1,0,0,0-.29-.71,1.05,1.05,0,0,0-1.42,0,1,1,0,0,0,0,1.41,1,1,0,0,0,1.42,0ZM15,36.87v.87a1,1,0,0,0,2,0v-.88a5,5,0,0,0,2.82-1.66,3.41,3.41,0,0,0,.79-2.59,3.62,3.62,0,0,0-1.38-2.47L17,28.43V23a3,3,0,0,1,2,2.8,1,1,0,0,0,2,0A5,5,0,0,0,17,21V19.86a1,1,0,0,0-2,0V21a5,5,0,0,0-2.82,1.66,3.4,3.4,0,0,0-.79,2.58,3.62,3.62,0,0,0,1.38,2.47L15,29.4v5.4A3,3,0,0,1,13,32a1,1,0,0,0-2,0A5,5,0,0,0,15,36.87Zm2-5.93,1,.77a1.63,1.63,0,0,1,.62,1.11,1.44,1.44,0,0,1-.33,1.1,3,3,0,0,1-1.29.87Zm-3-4.83A1.63,1.63,0,0,1,13.38,25a1.44,1.44,0,0,1,.33-1.1A3,3,0,0,1,15,23v3.85ZM52,11.92a1,1,0,1,0-1-1A1,1,0,0,0,52,11.92Zm-12,0a1,1,0,1,0-1-1A1,1,0,0,0,40,11.92Zm-20,0a1,1,0,1,0-1-1A1,1,0,0,0,20,11.92Zm24,0a1,1,0,1,0-1-1A1,1,0,0,0,44,11.92Zm-16,0a1,1,0,1,0-1-1A1,1,0,0,0,28,11.92Zm20,0a1,1,0,1,0-1-1A1,1,0,0,0,48,11.92Zm-12,0a1,1,0,1,0-1-1A1,1,0,0,0,36,11.92Zm-12,0a1,1,0,1,0-1-1A1,1,0,0,0,24,11.92Zm-12,0a1,1,0,1,0-1-1A1,1,0,0,0,12,11.92Zm-4,0a1,1,0,1,0-1-1A1,1,0,0,0,8,11.92Zm24,0a1,1,0,1,0-1-1A1,1,0,0,0,32,11.92Zm-16,0a1,1,0,1,0-1-1A1,1,0,0,0,16,11.92Z" style="fill:#616379"/></g></g></svg>