<svg xmlns="http://www.w3.org/2000/svg" xmlns:xlink="http://www.w3.org/1999/xlink" viewBox="0 0 126.75 107.24"><defs><clipPath id="b6c3adeb-0684-4fb2-bdae-03f2a815a0e9" transform="translate(0 0)"><rect width="126.75" height="107.24" style="fill:none"/></clipPath></defs><title>register-notice-1</title><g id="54678286-7da2-416d-87c7-4fa39de3cb84" data-name="Layer 2"><g id="189c1beb-649a-42c7-8d85-ef72bbbfd74a" data-name="Layer 1"><g style="clip-path:url(#b6c3adeb-0684-4fb2-bdae-03f2a815a0e9)"><path d="M65.79,44H61.62V27.21a15.24,15.24,0,0,1-5.14.69V24.31q5.15,0,5.89-4h3.42Z" transform="translate(0 0)" style="fill:#344154"/><path d="M29.91,63.85H14.34A8.82,8.82,0,0,1,15.65,59a13.32,13.32,0,0,1,1.76-2.08q1.15-1.14,2.84-2.54,1.5-1.24,2.53-2.18a14,14,0,0,0,1.66-1.76,5.67,5.67,0,0,0,.9-1.62A5.47,5.47,0,0,0,25.61,47a2.9,2.9,0,0,0-3.19-3.18,3,3,0,0,0-1.23.26,2.89,2.89,0,0,0-1,.77,4.37,4.37,0,0,0-.74,1.29A6,6,0,0,0,19.06,48H14.78a10.1,10.1,0,0,1,.74-3.18,7.64,7.64,0,0,1,1.6-2.43,6.94,6.94,0,0,1,2.35-1.55,7.94,7.94,0,0,1,3-.55,8.8,8.8,0,0,1,3.14.52,6.64,6.64,0,0,1,2.32,1.44,6.17,6.17,0,0,1,1.43,2.16,7.31,7.31,0,0,1,.49,2.7,8.28,8.28,0,0,1-.35,2.47,7.84,7.84,0,0,1-1.06,2.15,17.29,17.29,0,0,1-2,2.25q-1.33,1.31-3.24,3-1.14,1-2,1.74A15.73,15.73,0,0,0,20,59.88h9.87Z" transform="translate(0 0)" style="fill:#344154"/><path d="M111.28,46.61a5.88,5.88,0,0,1-.52,2.42,5.3,5.3,0,0,1-1.6,2,5.6,5.6,0,0,1,2.39,2.31,6.91,6.91,0,0,1,.82,3.38,7.54,7.54,0,0,1-.6,3,7.15,7.15,0,0,1-1.65,2.37,7.45,7.45,0,0,1-2.47,1.54,8.41,8.41,0,0,1-3.06.55,8.26,8.26,0,0,1-3-.54,7.09,7.09,0,0,1-2.39-1.53,7.23,7.23,0,0,1-1.6-2.37,9.09,9.09,0,0,1-.68-3.09h4.31a5.13,5.13,0,0,0,.22,1.52,3.72,3.72,0,0,0,.66,1.26,3.15,3.15,0,0,0,1.06.85,3.21,3.21,0,0,0,1.46.31,3.51,3.51,0,0,0,1.45-.29,3.25,3.25,0,0,0,1.11-.8,3.51,3.51,0,0,0,.71-1.22,4.77,4.77,0,0,0,.25-1.56,3.45,3.45,0,0,0-1-2.67,4.21,4.21,0,0,0-2.94-.92H102.4V49.62h1.33q3.3,0,3.3-3.05a2.78,2.78,0,0,0-.68-2,2.61,2.61,0,0,0-2-.7q-2.64,0-3,3.46H97.13a9.44,9.44,0,0,1,.81-3,7.2,7.2,0,0,1,1.57-2.21,6.35,6.35,0,0,1,2.18-1.35,7.59,7.59,0,0,1,2.64-.45,8.25,8.25,0,0,1,2.86.47A6.46,6.46,0,0,1,109.38,42a5.75,5.75,0,0,1,1.4,2,6.54,6.54,0,0,1,.49,2.56" transform="translate(0 0)" style="fill:#344154"/><rect x="42.75" y="56.87" width="41.25" height="48.87" style="fill:none;stroke:#344154;stroke-miterlimit:10;stroke-width:3px"/><rect x="84" y="77.84" width="41.25" height="27.9" style="fill:none;stroke:#344154;stroke-miterlimit:10;stroke-width:3px"/><rect x="84" y="77.84" width="41.25" height="27.9" style="fill:none;stroke:#344154;stroke-miterlimit:10;stroke-width:3px"/><rect x="1.5" y="77.84" width="41.25" height="27.9" style="fill:none;stroke:#344154;stroke-miterlimit:10;stroke-width:3px"/><line x1="63.37" y1="8.75" x2="63.37" style="fill:none;stroke:#344154;stroke-miterlimit:10;stroke-width:3px"/><line x1="55.45" y1="10.47" x2="51.97" y2="2.48" style="fill:none;stroke:#344154;stroke-miterlimit:10;stroke-width:3px"/><line x1="48.9" y1="15.33" x2="42.53" y2="9.48" style="fill:none;stroke:#344154;stroke-miterlimit:10;stroke-width:3px"/><line x1="77.85" y1="15.33" x2="84.21" y2="9.48" style="fill:none;stroke:#344154;stroke-miterlimit:10;stroke-width:3px"/><line x1="71.29" y1="10.47" x2="74.78" y2="2.48" style="fill:none;stroke:#344154;stroke-miterlimit:10;stroke-width:3px"/><rect x="48.85" y="63.09" width="29.04" height="36.44" style="fill:#ffc124"/></g></g></g></svg>