<svg xmlns="http://www.w3.org/2000/svg" viewBox="0 0 117.83 128.88"><title>service-benefit-4</title><g id="0dc4634f-6feb-46ec-bbbb-4a44e9913607" data-name="Layer 2"><g id="50060fb6-cd57-4827-9ad7-cad71410b6ed" data-name="Icon Set"><path d="M78,89.59c-22.08,0-33.3-7.7-33.33-22.89A33.29,33.29,0,0,1,51.4,47L65.23,28.37H90.76L104.6,47a33.28,33.28,0,0,1,6.73,19.73C111.3,81.89,100.08,89.59,78,89.59Z" style="fill:#fbc500"/><path d="M106.73,87.35c7.48-5.58,9.58-13.51,9.6-20.64A38.1,38.1,0,0,0,108.61,44L93.28,23.37H62.72L47.39,44a38.1,38.1,0,0,0-7.72,22.72c0,7.88,2.59,16.75,12.16,22.32" style="fill:none;stroke:#344154;stroke-miterlimit:10;stroke-width:3px"/><rect x="59.49" y="17.21" width="37.03" height="6.16" rx="2.37" ry="2.37" style="fill:none;stroke:#344154;stroke-miterlimit:10;stroke-width:3px"/><path d="M88.63,3.57l-3,3L84.35,5.24A8.74,8.74,0,0,0,72,5.24L70.69,6.55l-3-3a7.07,7.07,0,0,0-10,0L54,7.26l10.27,9.95H92.06l10.27-9.95L98.64,3.57A7.07,7.07,0,0,0,88.63,3.57Z" style="fill:none;stroke:#344154;stroke-miterlimit:10;stroke-width:3px"/><path d="M64.81,105h5.35a25.51,25.51,0,0,0,14.32-4.4l3.91-2.65a1.44,1.44,0,0,0,.44-2,6.73,6.73,0,0,0-2.24-2.09,6.62,6.62,0,0,0-6.24,0,17,17,0,0,1-13.7.55,44.23,44.23,0,0,0-6.72-3.48,28.25,28.25,0,0,0-27,3.31h0" style="fill:none;stroke:#344154;stroke-miterlimit:10;stroke-width:3px"/><path d="M32.89,113s12.1-2.35,33.26-1.14a30.77,30.77,0,0,0,16.09-3.54l32.18-17a1.27,1.27,0,0,0,.4-1.91c-1.15-1.47-3.77-3.52-9-2.13a12.74,12.74,0,0,0-1.74.62l-16.19,6.9" style="fill:none;stroke:#344154;stroke-miterlimit:10;stroke-width:3px"/><polyline points="20.67 120.74 32.57 120.74 32.57 90.03 20.67 90.03" style="fill:none;stroke:#344154;stroke-miterlimit:10;stroke-width:3px"/><rect y="81.05" width="20.67" height="47.83" style="fill:#3eaeb7"/><text transform="translate(67.76 72.24)" style="font-size:41.82215118408203px;fill:#344154;font-family:MyriadPro-Regular, Myriad Pro">ла</text><rect x="69.11" y="63.7" width="13.33" height="2.92" style="fill:#344154"/></g></g></svg>