<svg xmlns="http://www.w3.org/2000/svg" xmlns:xlink="http://www.w3.org/1999/xlink" viewBox="0 0 121.17 112.67"><defs><clipPath id="ab55380d-e403-45fe-865c-e2c3c27086c0" transform="translate(0 0)"><rect width="121.17" height="112.67" style="fill:none"/></clipPath></defs><title>service-benefit-5</title><g id="2f0c10d8-adf8-471c-b216-ea0ba80a433d" data-name="Layer 2"><g id="9fc474a8-38aa-4a33-80c8-8c462dc14a3b" data-name="Icon Set"><g style="clip-path:url(#ab55380d-e403-45fe-865c-e2c3c27086c0)"><path d="M11.78,111.17v-3.08a10.83,10.83,0,0,1,5.48-20.17V36.05H1.5v75.12Z" transform="translate(0 0)" style="fill:#ffc124"/><line x1="97.98" y1="94.51" x2="91.01" y2="94.51" style="fill:none;stroke:#344154;stroke-linecap:round;stroke-linejoin:round;stroke-width:3px"/><line x1="102.6" y1="76.4" x2="92.34" y2="76.4" style="fill:none;stroke:#344154;stroke-linecap:round;stroke-linejoin:round;stroke-width:3px"/><line x1="106.02" y1="58.24" x2="93.57" y2="58.24" style="fill:none;stroke:#344154;stroke-linecap:round;stroke-linejoin:round;stroke-width:3px"/><path d="M1.5,111.17H29.19A3.84,3.84,0,0,0,33,107.34V39.89a3.84,3.84,0,0,0-3.84-3.84H1.5Z" transform="translate(0 0)" style="fill:none;stroke:#344154;stroke-linecap:round;stroke-linejoin:round;stroke-width:3px"/><path d="M33,105.69A414.15,414.15,0,0,0,97.67,111c4.83,0,9.36-2.61,9.36-8.24,0-4.64-3.84-8.29-9.05-8.29h3.89A9.28,9.28,0,0,0,111.24,86a9.07,9.07,0,0,0-9.05-9.68h3.89a9.28,9.28,0,0,0,9.36-8.47,9.07,9.07,0,0,0-9.05-9.68h3.89a9.28,9.28,0,0,0,9.36-8.47,9.07,9.07,0,0,0-9.05-9.68H77.49a4.35,4.35,0,0,1-4.26-5.26A44.17,44.17,0,0,0,69.76,5.7c-3.36-7-13.86-4.73-14,3C55.27,35,33,41.95,33,41.95" transform="translate(0 0)" style="fill:none;stroke:#344154;stroke-linecap:round;stroke-linejoin:round;stroke-width:3px"/><circle cx="17.26" cy="98.76" r="5.35" style="fill:none;stroke:#344154;stroke-linecap:round;stroke-linejoin:round;stroke-width:3px"/><line x1="17.26" y1="104.1" x2="17.26" y2="111.17" style="fill:none;stroke:#344154;stroke-linecap:round;stroke-linejoin:round;stroke-width:3px"/></g></g></g></svg>