<svg xmlns="http://www.w3.org/2000/svg" xmlns:xlink="http://www.w3.org/1999/xlink" viewBox="0 0 70.29 74.13"><defs><clipPath id="fac1f344-7078-4c78-8968-549b0e56407f"><rect width="70.29" height="74.13" style="fill:none"/></clipPath></defs><title>service-benefit-3</title><g id="123497a3-16fd-4adc-8278-40174b5d0e13" data-name="Layer 2"><g id="b1363234-baab-4e41-b117-771748bd9ec5" data-name="Icon Set"><g style="clip-path:url(#fac1f344-7078-4c78-8968-549b0e56407f)"><path d="M56.75,1.5H13.55S10.06,26.25,28.46,45.12H41.83C60.24,26.25,56.75,1.5,56.75,1.5Z" style="fill:none;stroke:#344154;stroke-linejoin:round;stroke-width:3px"/><path d="M31.08,39.12C21.27,27.9,19.48,14.64,19.31,7.5H51c-.17,7.13-2,20.39-11.77,31.62Z" style="fill:#ffc124"/><path d="M57.44,10.47H68.79S67.63,25.92,53.58,25.92" style="fill:none;stroke:#344154;stroke-linejoin:round;stroke-width:3px"/><path d="M12.85,10.47H1.5S2.66,25.92,16.71,25.92" style="fill:none;stroke:#344154;stroke-linejoin:round;stroke-width:3px"/><path d="M46.54,72.63H23.75a10.31,10.31,0,0,1,1.59-6,7.12,7.12,0,0,1,2.12-2.14c2.11-1.36,4.41-3.61,4.75-6.26.64-5-3.77-8.6-3.77-8.6l.2-4.54H41.71l.2,4.54s-4.45,3.56-3.81,8.6c.33,2.65,2.64,4.9,4.75,6.26A7.15,7.15,0,0,1,45,66.66,10.31,10.31,0,0,1,46.54,72.63Z" style="fill:none;stroke:#344154;stroke-linejoin:round;stroke-width:3px"/><line x1="18.43" y1="72.63" x2="51.86" y2="72.63" style="fill:none;stroke:#344154;stroke-linecap:round;stroke-linejoin:round;stroke-width:3px"/></g></g></g></svg>