<svg xmlns="http://www.w3.org/2000/svg" xmlns:xlink="http://www.w3.org/1999/xlink" viewBox="0 0 83.84 125.83"><defs><clipPath id="7398667d-a0eb-4d50-9680-c987200fe364"><rect width="83.84" height="125.83" style="fill:none"/></clipPath></defs><title>service-benefit-2</title><g id="ecdfe597-8180-4aa5-ae27-2045e538360d" data-name="Layer 2"><g id="52cb2aad-089a-46b3-afa8-68c3afe32e52" data-name="Icon Set"><g style="clip-path:url(#7398667d-a0eb-4d50-9680-c987200fe364)"><path d="M48.45,8.42V8A6.53,6.53,0,1,0,35.39,8v.39" style="fill:none;stroke:#344154;stroke-miterlimit:10;stroke-width:3px"/><path d="M28.08,10.24V24a2.35,2.35,0,0,0,2.35,2.35h.94a2.35,2.35,0,0,0,2.33-2l0-.29a8.24,8.24,0,0,1,16.34,0l0,.29a2.35,2.35,0,0,0,4.69-.3V10.24A1.82,1.82,0,0,0,53,8.42H29.9a1.82,1.82,0,0,0-1.82,1.82" style="fill:#35b0cb"/><path d="M28.08,13.92H7.87A6.37,6.37,0,0,0,1.5,20.29V118a6.37,6.37,0,0,0,6.37,6.37H76A6.37,6.37,0,0,0,82.34,118V20.29A6.37,6.37,0,0,0,76,13.92H54.82" style="fill:none;stroke:#344154;stroke-miterlimit:10;stroke-width:3px"/><polyline points="25.88 23.36 10.94 23.36 10.94 114.9 58.92 114.9 72.9 100.91 72.9 23.36 57.96 23.36" style="fill:none;stroke:#344154;stroke-miterlimit:10;stroke-width:3px"/><polyline points="34.69 62.33 27.2 70.26 23.58 66.64" style="fill:none;stroke:#344154;stroke-miterlimit:10;stroke-width:3px"/><line x1="23.95" y1="48.21" x2="32.88" y2="39.29" style="fill:none;stroke:#344154;stroke-miterlimit:10;stroke-width:3px"/><line x1="32.88" y1="48.21" x2="23.95" y2="39.29" style="fill:none;stroke:#344154;stroke-miterlimit:10;stroke-width:3px"/><line x1="23.95" y1="94.2" x2="32.88" y2="85.28" style="fill:none;stroke:#344154;stroke-miterlimit:10;stroke-width:3px"/><line x1="32.88" y1="94.2" x2="23.95" y2="85.28" style="fill:none;stroke:#344154;stroke-miterlimit:10;stroke-width:3px"/><line x1="39.25" y1="48.21" x2="65.08" y2="48.21" style="fill:none;stroke:#344154;stroke-miterlimit:10;stroke-width:3px"/><line x1="39.25" y1="70.79" x2="65.08" y2="70.79" style="fill:none;stroke:#344154;stroke-miterlimit:10;stroke-width:3px"/><polyline points="55.93 109.22 55.93 97.93 67.22 97.93" style="fill:none;stroke:#344154;stroke-linecap:round;stroke-miterlimit:10;stroke-width:3px"/></g></g></g></svg>