<svg xmlns="http://www.w3.org/2000/svg" viewBox="0 0 22 21"><title>star</title><g id="0760f864-5a37-4da8-a47a-edfd3bf466be" data-name="Layer 2"><g id="379bbd1d-5d62-4964-aa63-a447c720cde8" data-name="Layer 1"><path d="M5.51,18.79l.93-5.41a1,1,0,0,0-.29-.89L2.21,8.67,2.1,8.55l.16,0,5.46-.79a1,1,0,0,0,.75-.55l2.44-4.92L11,2.11l.09.15,2.44,4.92a1,1,0,0,0,.75.55l5.46.79.16,0-.11.12-4,3.83a1,1,0,0,0-.29.89l.93,5.41a1.63,1.63,0,0,1,0,.16l-.16-.07-4.88-2.55a1,1,0,0,0-.93,0L5.65,18.88,5.5,19s0-.1,0-.16M9.12,1.37,6.91,5.82,2,6.54C-.05,6.83-.66,8.67.82,10.1l3.57,3.46-.84,4.89c-.35,2,1.22,3.15,3,2.2L11,18.34l4.42,2.31c1.81.95,3.38-.19,3-2.2l-.84-4.89,3.57-3.46c1.47-1.43.87-3.27-1.16-3.56l-4.94-.71L12.88,1.37A2.17,2.17,0,0,0,11,0,2.17,2.17,0,0,0,9.12,1.37" style="fill:#1ec0c4"/></g></g></svg>