<svg xmlns="http://www.w3.org/2000/svg" viewBox="0 0 33.86 29.56"><title>user-link-4</title><g id="8fcc3980-4d12-4832-8471-066b1c2c9e41" data-name="Layer 2"><g id="9a60ede6-aae0-44a4-8a1f-789d5b44d5b0" data-name="Icon Set"><path d="M16.93,29.56l-.59-.48C3.48,18.61,0,14.92,0,8.93A8.94,8.94,0,0,1,8.93,0c4.11,0,6.44,2.34,8,4.09C18.49,2.34,20.82,0,24.93,0a8.94,8.94,0,0,1,8.93,8.93c0,6-3.48,9.68-16.34,20.15l-.59.48Zm-8-27.7A7.08,7.08,0,0,0,1.86,8.93c0,5.13,3.23,8.56,15.07,18.23C28.77,17.49,32,14.06,32,8.93a7.08,7.08,0,0,0-7.07-7.07C21.36,1.86,19.5,4,18,5.69L16.93,6.9l-1.07-1.2C14.36,4,12.5,1.86,8.93,1.86Z" style="fill:#344154"/><rect x="11.25" y="14.83" width="2.38" height="9.84" rx="1.19" ry="1.19" transform="translate(-10.54 15.63) rotate(-47.64)" style="fill:#fdbf24"/></g></g></svg>