<svg xmlns="http://www.w3.org/2000/svg" viewBox="0 0 131.04 111.25"><title>user-link-1</title><g id="b36f17ae-7d28-43a8-a289-32c3e3af662a" data-name="Layer 2"><g id="3d77abce-c2b8-4c17-95ea-8c79e6f820f0" data-name="Icon Set"><polygon points="46.53 33.67 50.25 49.48 66.3 48.33 62.38 33.19 46.53 33.67" style="fill:#fdbf24"/><path d="M1.5,1.5h9.9a12.27,12.27,0,0,1,11.81,8.94l18.91,66.5A17.19,17.19,0,0,0,58.66,89.46h60" style="fill:none;stroke:#344154;stroke-linecap:round;stroke-linejoin:round;stroke-width:3px"/><path d="M46.08,33.19l9.48,34.35H120.9l8.57-43.88a4.06,4.06,0,0,0-4-4.84H25.73" style="fill:none;stroke:#344154;stroke-linecap:round;stroke-linejoin:round;stroke-width:3px"/><line x1="62.75" y1="33.16" x2="66.91" y2="58.84" style="fill:none;stroke:#344154;stroke-linecap:round;stroke-linejoin:round;stroke-width:3px"/><line x1="80.37" y1="33.16" x2="80.37" y2="58.84" style="fill:none;stroke:#344154;stroke-linecap:round;stroke-linejoin:round;stroke-width:3px"/><line x1="113.02" y1="33.16" x2="108.86" y2="58.84" style="fill:none;stroke:#344154;stroke-linecap:round;stroke-linejoin:round;stroke-width:3px"/><line x1="95.4" y1="33.16" x2="95.4" y2="58.84" style="fill:none;stroke:#344154;stroke-linecap:round;stroke-linejoin:round;stroke-width:3px"/><line x1="46.08" y1="33.19" x2="113.02" y2="33.19" style="fill:none;stroke:#344154;stroke-linecap:round;stroke-linejoin:round;stroke-width:3px"/><line x1="50.25" y1="48.33" x2="110.57" y2="48.33" style="fill:none;stroke:#344154;stroke-linecap:round;stroke-linejoin:round;stroke-width:3px"/><circle cx="106.5" cy="103.28" r="6.47" style="fill:none;stroke:#344154;stroke-linecap:round;stroke-linejoin:round;stroke-width:3px"/><circle cx="64" cy="103.28" r="6.47" style="fill:none;stroke:#344154;stroke-linecap:round;stroke-linejoin:round;stroke-width:3px"/></g></g></svg>