<svg xmlns="http://www.w3.org/2000/svg" xmlns:xlink="http://www.w3.org/1999/xlink" viewBox="0 0 94.9 121.63"><defs><clipPath id="0aaca817-aee9-4f57-b275-350c6130ca76"><rect width="94.9" height="121.63" style="fill:none"/></clipPath></defs><title>user-link-3</title><g id="5369c6ab-bac5-43d4-8ebe-ec974242a5fd" data-name="Layer 2"><g id="aa7ef14d-365e-4514-85c4-090c0384c315" data-name="Icon Set"><g style="clip-path:url(#0aaca817-aee9-4f57-b275-350c6130ca76)"><path d="M27.68,23.73c0-2.91-5.28-10.13-5.28-10.13s-5.28,7.22-5.28,10.13a5.28,5.28,0,1,0,10.55,0" style="fill:#ffc124"/><rect x="10.11" y="10.11" width="24.58" height="24.58" style="fill:none;stroke:#344154;stroke-miterlimit:10;stroke-width:3px"/><line x1="8.7" y1="43.38" x2="65.45" y2="43.38" style="fill:none;stroke:#344154;stroke-miterlimit:10;stroke-width:3px"/><line x1="8.7" y1="52.39" x2="65.45" y2="52.39" style="fill:none;stroke:#344154;stroke-miterlimit:10;stroke-width:3px"/><line x1="8.7" y1="61.41" x2="65.45" y2="61.41" style="fill:none;stroke:#344154;stroke-miterlimit:10;stroke-width:3px"/><line x1="42.45" y1="10.11" x2="65.45" y2="10.11" style="fill:none;stroke:#344154;stroke-miterlimit:10;stroke-width:3px"/><line x1="42.45" y1="19.13" x2="65.45" y2="19.13" style="fill:none;stroke:#344154;stroke-miterlimit:10;stroke-width:3px"/><line x1="8.7" y1="70.43" x2="65.45" y2="70.43" style="fill:none;stroke:#344154;stroke-miterlimit:10;stroke-width:3px"/><path d="M72.92,79.16V1.5H1.5V99.64H52.43A20.48,20.48,0,0,1,72.92,79.16Z" style="fill:none;stroke:#344154;stroke-miterlimit:10;stroke-width:3px"/><line x1="27.68" y1="90.58" x2="8.7" y2="90.58" style="fill:none;stroke:#344154;stroke-miterlimit:10;stroke-width:3px"/><path d="M70.76,92.42a5.23,5.23,0,0,0-1-1.79,4.53,4.53,0,0,0-1.59-1.12,5,5,0,0,0-2-.39,5.11,5.11,0,0,0-2,.38,4.38,4.38,0,0,0-1.58,1.12,5.27,5.27,0,0,0-1,1.8,7.18,7.18,0,0,0-.37,2.39,7.31,7.31,0,0,0,.36,2.38,5.24,5.24,0,0,0,1,1.8,4.37,4.37,0,0,0,1.57,1.13,5.42,5.42,0,0,0,4,0A4.37,4.37,0,0,0,69.74,99a5.34,5.34,0,0,0,1-1.79,7.77,7.77,0,0,0,0-4.76m-4.63,5.27q-1.62,0-1.62-2.87t1.62-2.87q1.64,0,1.64,2.87t-1.64,2.87" style="fill:#344154"/><polygon points="80.13 89.45 68.99 109.84 65.65 109.84 76.8 89.45 80.13 89.45" style="fill:#344154"/><path d="M84.3,102.09a5.34,5.34,0,0,0-1-1.8,4.46,4.46,0,0,0-1.58-1.14,5,5,0,0,0-2-.4,5.07,5.07,0,0,0-2,.39,4.46,4.46,0,0,0-1.57,1.13,5.16,5.16,0,0,0-1,1.79,7.27,7.27,0,0,0-.37,2.39,7.37,7.37,0,0,0,.37,2.41,5.21,5.21,0,0,0,1,1.8,4.37,4.37,0,0,0,1.57,1.13,5.09,5.09,0,0,0,2,.39,5,5,0,0,0,2-.4,4.46,4.46,0,0,0,1.58-1.14,5.33,5.33,0,0,0,1-1.8,7.17,7.17,0,0,0,.37-2.38,7.06,7.06,0,0,0-.37-2.36m-4.62,5.26q-1.62,0-1.62-2.9t1.62-2.86q1.63,0,1.63,2.86t-1.63,2.9" style="fill:#344154"/><circle cx="72.92" cy="99.64" r="20.48" style="fill:none;stroke:#344154;stroke-miterlimit:10;stroke-width:3px"/><rect x="8.7" y="79.16" width="18.98" height="6.38" style="fill:#35b0cb"/></g></g></g></svg>