<svg xmlns="http://www.w3.org/2000/svg" xmlns:xlink="http://www.w3.org/1999/xlink" viewBox="0 0 54 54"><defs><clipPath id="17cc10d0-ea8f-4a1a-b4d5-a8280334e3c2"><rect x="3" y="3" width="48" height="48" style="fill:none"/></clipPath><clipPath id="2d4cc813-a6e8-49cd-8e0d-c840025ded93"><path d="M27,27A11,11,0,1,1,38,16,11,11,0,0,1,27,27Zm0-4a7,7,0,1,0-7-7,7,7,0,0,0,7,7ZM47.82,37.16a12.84,12.84,0,0,1,.81,3.32c.11.74.2,1.53.28,2.32,0,.27,0,.53.07.76l0,.3V44a5,5,0,0,1-5,5H10a5,5,0,0,1-5-5v-.14l0-.3c0-.23,0-.49.07-.76.08-.79.17-1.57.28-2.32a12.84,12.84,0,0,1,.81-3.32C7.72,33.83,19,29,27,29s19.28,4.83,20.82,8.16ZM44,38.69a10.32,10.32,0,0,0-1.17-.86,29.08,29.08,0,0,0-4.19-2.16A30.86,30.86,0,0,0,27,33a30.86,30.86,0,0,0-11.62,2.67,29.08,29.08,0,0,0-4.19,2.16,10.32,10.32,0,0,0-1.17.86l-.24.23a12.5,12.5,0,0,0-.45,2.15c-.1.67-.18,1.39-.25,2.12,0,.37-.06.68-.08.87A1,1,0,0,0,10,45H44a1,1,0,0,0,1-.95c0-.2,0-.5-.08-.87-.07-.73-.15-1.45-.25-2.12a12.5,12.5,0,0,0-.45-2.15L44,38.69Z" style="fill:none;clip-path:url(#17cc10d0-ea8f-4a1a-b4d5-a8280334e3c2)"/></clipPath></defs><title>user</title><g id="40397b72-55c5-4263-ab50-858809a788ac" data-name="Layer 2"><g id="b5ec55be-1bb2-43b3-a66f-e08b573ffc47" data-name="Layer 1"><g style="clip-path:url(#2d4cc813-a6e8-49cd-8e0d-c840025ded93)"><rect width="54" height="54"/></g></g></g></svg>