<svg xmlns="http://www.w3.org/2000/svg" xmlns:xlink="http://www.w3.org/1999/xlink" viewBox="0 0 297.73 297.75"><defs><clipPath id="a8e3ed18-77b3-487c-958c-3bfefa941936" transform="translate(0 0)"><rect width="297.73" height="297.75" style="fill:none"/></clipPath><clipPath id="773431c1-befc-4754-bc72-37f3578e10a5" transform="translate(0 0)"><rect x="37.7" y="38.97" width="221.17" height="221.17" style="fill:none"/></clipPath><clipPath id="fa7ea8da-63c8-4208-9493-9a00e393263e" transform="translate(0 0)"><rect x="26.69" y="27.67" width="243.37" height="243.37" style="fill:none"/></clipPath><clipPath id="02bfa671-1901-4870-98b5-f7b10fbd51a7" transform="translate(0 0)"><rect x="1.16" y="1.63" width="295.46" height="295.46" style="fill:none"/></clipPath></defs><title>user-status-bronze</title><g id="23d046f6-d027-4e0c-8225-1725bbafe33c" data-name="Layer 2"><g id="14639826-cc44-4dba-8540-7799c270fb7b" data-name="Layer 1"><g style="clip-path:url(#a8e3ed18-77b3-487c-958c-3bfefa941936)"><g style="clip-path:url(#a8e3ed18-77b3-487c-958c-3bfefa941936)"><path d="M297.73,148.87A148.87,148.87,0,1,0,148.87,297.73,148.87,148.87,0,0,0,297.73,148.87" transform="translate(0 0)" style="fill:#eaa557"/><path d="M268.14,148.87A119.28,119.28,0,1,0,148.87,268.15,119.28,119.28,0,0,0,268.14,148.87" transform="translate(0 0)" style="fill:#c97b2d"/><path d="M257.69,148.87A108.82,108.82,0,1,0,148.87,257.69,108.82,108.82,0,0,0,257.69,148.87" transform="translate(0 0)" style="fill:#eaa557"/><path d="M148.87,0a148.87,148.87,0,0,0,0,297.74h.54V0h-.54" transform="translate(0 0)" style="fill:#cd863e"/><path d="M148.87,29.58a119.28,119.28,0,0,0,0,238.56h.55l0-238.55h-.53" transform="translate(0 0)" style="fill:#eaa557"/><path d="M257.69,148.87A108.82,108.82,0,1,0,148.87,257.69,108.82,108.82,0,0,0,257.69,148.87" transform="translate(0 0)" style="fill:#eaa557"/><path d="M148.87,40a108.82,108.82,0,1,0,0,217.64c.5,0,.14.05.64,0l-.12-217.68c-.5,0,0,0-.52,0" transform="translate(0 0)" style="fill:#cd863e"/><g style="opacity:0.25106799602508545"><g style="clip-path:url(#773431c1-befc-4754-bc72-37f3578e10a5)"><circle cx="148.28" cy="149.55" r="108.82" style="fill:none;stroke:#fff;stroke-linejoin:round;stroke-width:3.5269999504089355px"/></g></g><g style="opacity:0.25106799602508545"><g style="clip-path:url(#fa7ea8da-63c8-4208-9493-9a00e393263e)"><circle cx="148.38" cy="149.36" r="120.16" style="fill:none;stroke:#fff;stroke-linejoin:round;stroke-width:3.0480000972747803px"/></g></g><g style="opacity:0.6201779842376709"><g style="clip-path:url(#02bfa671-1901-4870-98b5-f7b10fbd51a7)"><circle cx="148.89" cy="149.36" r="146.2" style="fill:none;stroke:#fff;stroke-linejoin:round;stroke-width:3.0480000972747803px"/></g></g></g></g></g></g></svg>