<svg xmlns="http://www.w3.org/2000/svg" viewBox="0 0 197.18 232.6"><title>user-link-6</title><g id="4dacec6e-1e9f-4680-a2ee-35b190f70dab" data-name="Layer 2"><g id="59879bf4-450e-4920-a558-a56e43608457" data-name="Icon Set"><circle cx="142.87" cy="196.14" r="7.41" style="fill:#ffc124"/><circle cx="31.63" cy="172.61" r="7.41" style="fill:#35b0cb"/><circle cx="98.59" cy="67.12" r="64.12" style="fill:none;stroke:#344154;stroke-miterlimit:10;stroke-width:6px"/><path d="M149.52,67.12A50.93,50.93,0,0,0,98.59,16.19" style="fill:none;stroke:#344154;stroke-linecap:round;stroke-miterlimit:10;stroke-width:3px"/><polyline points="89.24 131.24 89.24 154.53 107.94 154.53 107.94 131.24" style="fill:none;stroke:#344154;stroke-miterlimit:10;stroke-width:5px"/><line x1="26.26" y1="178.24" x2="14.63" y2="190.5" style="fill:none;stroke:#344154;stroke-linecap:round;stroke-miterlimit:10;stroke-width:3px"/><line x1="48.59" y1="190.51" x2="36.97" y2="178.26" style="fill:none;stroke:#344154;stroke-linecap:round;stroke-miterlimit:10;stroke-width:3px"/><line x1="71.69" y1="177.43" x2="59.3" y2="190.49" style="fill:none;stroke:#344154;stroke-linecap:round;stroke-miterlimit:10;stroke-width:3px"/><circle cx="9.28" cy="196.14" r="7.78" style="fill:none;stroke:#344154;stroke-linecap:round;stroke-miterlimit:10;stroke-width:3px"/><circle cx="31.63" cy="172.61" r="7.78" style="fill:none;stroke:#344154;stroke-linecap:round;stroke-miterlimit:10;stroke-width:3px"/><circle cx="53.95" cy="196.14" r="7.78" style="fill:none;stroke:#344154;stroke-linecap:round;stroke-miterlimit:10;stroke-width:3px"/><path d="M115,205.21V160.5a6,6,0,0,0-6-6H88.19a6,6,0,0,0-6,6v44.71" style="fill:none;stroke:#344154;stroke-linecap:round;stroke-miterlimit:10;stroke-width:6px"/><path d="M82.23,205.21v18.42a6,6,0,0,0,6,6H109a6,6,0,0,0,6-6V205.21" style="fill:none;stroke:#344154;stroke-linecap:round;stroke-miterlimit:10;stroke-width:6px"/><line x1="170.92" y1="178.24" x2="182.55" y2="190.5" style="fill:none;stroke:#344154;stroke-linecap:round;stroke-miterlimit:10;stroke-width:3px"/><line x1="148.59" y1="190.51" x2="160.21" y2="178.26" style="fill:none;stroke:#344154;stroke-linecap:round;stroke-miterlimit:10;stroke-width:3px"/><line x1="125.49" y1="177.43" x2="137.89" y2="190.49" style="fill:none;stroke:#344154;stroke-linecap:round;stroke-miterlimit:10;stroke-width:3px"/><circle cx="187.9" cy="196.14" r="7.78" style="fill:none;stroke:#344154;stroke-linecap:round;stroke-miterlimit:10;stroke-width:3px"/><circle cx="165.55" cy="172.61" r="7.78" style="fill:none;stroke:#344154;stroke-linecap:round;stroke-miterlimit:10;stroke-width:3px"/><circle cx="143.23" cy="196.14" r="7.78" style="fill:none;stroke:#344154;stroke-linecap:round;stroke-miterlimit:10;stroke-width:3px"/><text transform="translate(79.64 96.5)" style="font-size:71.93743896484375px;fill:#344154;font-family:Panton-Regular, Panton Regular">?</text></g></g></svg>