<svg xmlns="http://www.w3.org/2000/svg" xmlns:xlink="http://www.w3.org/1999/xlink" viewBox="0 0 133.73 90.75"><defs><clipPath id="0f1340c3-3eaf-4aeb-95b4-90c7de94cbd8" transform="translate(0 0)"><rect width="133.73" height="90.75" style="fill:none"/></clipPath></defs><title>user-link-5</title><g id="53b6d905-5f62-40c4-af6d-0558d5730bbf" data-name="Layer 2"><g id="86c4b8cf-70e7-4cc9-a311-08e309af6482" data-name="Icon Set"><rect x="23.82" y="18.37" width="32.6" height="16.19" style="fill:#35b0cb"/><line x1="23.82" y1="42" x2="56.42" y2="42" style="fill:none;stroke:#344154;stroke-linecap:round;stroke-linejoin:round;stroke-width:3px"/><line x1="23.82" y1="50.53" x2="56.42" y2="50.53" style="fill:none;stroke:#344154;stroke-linecap:round;stroke-linejoin:round;stroke-width:3px"/><line x1="23.82" y1="59.07" x2="56.42" y2="59.07" style="fill:none;stroke:#344154;stroke-linecap:round;stroke-linejoin:round;stroke-width:3px"/><g style="clip-path:url(#0f1340c3-3eaf-4aeb-95b4-90c7de94cbd8)"><path d="M127.65,89.25H6.08A4.58,4.58,0,0,1,1.5,84.66V79.15H132.23v5.52A4.58,4.58,0,0,1,127.65,89.25Z" transform="translate(0 0)" style="fill:none;stroke:#344154;stroke-linecap:round;stroke-linejoin:round;stroke-width:3px"/><path d="M119.39,1.5H14.34A4.32,4.32,0,0,0,10,5.82V79.15H123.71V5.82A4.32,4.32,0,0,0,119.39,1.5Z" transform="translate(0 0)" style="fill:none;stroke:#344154;stroke-linecap:round;stroke-linejoin:round;stroke-width:3px"/><path d="M98.54,38.2a2.07,2.07,0,0,0-1.46-1.68l-3.31-.72a8.26,8.26,0,0,1-3.94,2,8.26,8.26,0,0,1-3.94-2l-3.31.72a2.07,2.07,0,0,0-1.46,1.68l-.72,3.44H99.26Z" transform="translate(0 0)" style="fill:#35b0cb"/><path d="M94,30.58a4.2,4.2,0,1,1-8.37,0,4.2,4.2,0,1,1,8.37,0" transform="translate(0 0)" style="fill:#35b0cb"/><rect x="77.1" y="17.64" width="25.44" height="25.44" style="fill:none;stroke:#344154;stroke-linecap:round;stroke-linejoin:round;stroke-width:3px"/></g></g></g></svg>