<svg xmlns="http://www.w3.org/2000/svg" xmlns:xlink="http://www.w3.org/1999/xlink" viewBox="0 0 104.61 118.12"><defs><clipPath id="042b8136-f365-413c-81c2-d147104592c5"><rect width="104.61" height="118.12" style="fill:none"/></clipPath></defs><title>user-link-2</title><g id="ddea25fb-62b8-441d-bf6b-d91322b93a13" data-name="Layer 2"><g id="f149035f-fa48-4294-938f-4ed6b6fe577d" data-name="Icon Set"><line x1="36.18" y1="8.36" x2="53.31" y2="8.36" style="fill:none;stroke:#344154;stroke-linejoin:round;stroke-width:3px"/><g style="clip-path:url(#042b8136-f365-413c-81c2-d147104592c5)"><path d="M54.13,116.62H8.34a6.84,6.84,0,0,1-6.84-6.84V8.34A6.84,6.84,0,0,1,8.34,1.5H81.15A6.84,6.84,0,0,1,88,8.34V40.86" style="fill:none;stroke:#344154;stroke-linecap:round;stroke-linejoin:round;stroke-width:3px"/><line x1="36.18" y1="109.76" x2="53.31" y2="109.76" style="fill:none;stroke:#344154;stroke-linejoin:round;stroke-width:3px"/><line x1="1.5" y1="15.23" x2="87.99" y2="15.23" style="fill:none;stroke:#344154;stroke-linecap:round;stroke-linejoin:round;stroke-width:3px"/><line x1="53.31" y1="102.9" x2="1.5" y2="102.9" style="fill:none;stroke:#344154;stroke-linecap:round;stroke-linejoin:round;stroke-width:3px"/><path d="M19.53,36.55H14.18A3.23,3.23,0,0,1,11,33.33V28a3.23,3.23,0,0,1,3.23-3.23h5.35A3.23,3.23,0,0,1,22.76,28v5.35a3.23,3.23,0,0,1-3.23,3.23" style="fill:#ffc124"/><path d="M37.83,36.55H32.49a3.23,3.23,0,0,1-3.23-3.23V28a3.23,3.23,0,0,1,3.23-3.23h5.35A3.23,3.23,0,0,1,41.06,28v5.35a3.23,3.23,0,0,1-3.23,3.23" style="fill:#ffc124"/><path d="M56.14,36.55H50.79a3.23,3.23,0,0,1-3.23-3.23V28a3.23,3.23,0,0,1,3.23-3.23h5.35A3.23,3.23,0,0,1,59.37,28v5.35a3.23,3.23,0,0,1-3.23,3.23" style="fill:#ffc124"/><path d="M19.53,55.65H14.18A3.23,3.23,0,0,1,11,52.42V47.07a3.23,3.23,0,0,1,3.23-3.23h5.35a3.23,3.23,0,0,1,3.23,3.23v5.35a3.23,3.23,0,0,1-3.23,3.23" style="fill:#ffc124"/><path d="M37.83,55.65H32.49a3.23,3.23,0,0,1-3.23-3.23V47.07a3.23,3.23,0,0,1,3.23-3.23h5.35a3.23,3.23,0,0,1,3.23,3.23v5.35a3.23,3.23,0,0,1-3.23,3.23" style="fill:#ffc124"/><path d="M19.53,74.74H14.18A3.23,3.23,0,0,1,11,71.52V66.17a3.23,3.23,0,0,1,3.23-3.23h5.35a3.23,3.23,0,0,1,3.23,3.23v5.35a3.23,3.23,0,0,1-3.23,3.23" style="fill:#ffc124"/><path d="M37.83,74.74H32.49a3.23,3.23,0,0,1-3.23-3.23V66.17a3.23,3.23,0,0,1,3.23-3.23h5.35a3.23,3.23,0,0,1,3.23,3.23v5.35a3.23,3.23,0,0,1-3.23,3.23" style="fill:#ffc124"/><path d="M76.35,58.35V47h4.46a4.46,4.46,0,0,1,4.46,4.46" style="fill:none;stroke:#344154;stroke-linecap:round;stroke-linejoin:round;stroke-width:3px"/><path d="M103.08,67.38a88.72,88.72,0,0,1-4.21,24.88,45.28,45.28,0,0,0-1.24,4.65H78.47" style="fill:none;stroke:#344154;stroke-linecap:round;stroke-linejoin:round;stroke-width:3px"/><path d="M76.35,47V35.11a4.46,4.46,0,1,0-8.92,0v33l-3.08-8A5.29,5.29,0,0,0,54.13,62a29.63,29.63,0,0,0,4.15,15.22,34.21,34.21,0,0,0,3.8,5.23C67.56,88.6,69,96.9,69,96.9" style="fill:none;stroke:#344154;stroke-linecap:round;stroke-linejoin:round;stroke-width:3px"/><path d="M85.27,61.68V50.29h4.46a4.46,4.46,0,0,1,4.46,4.46v10.8" style="fill:none;stroke:#344154;stroke-linecap:round;stroke-linejoin:round;stroke-width:3px"/><path d="M94.19,56h4.46a4.46,4.46,0,0,1,4.46,4.46v6.93" style="fill:none;stroke:#344154;stroke-linecap:round;stroke-linejoin:round;stroke-width:3px"/><rect x="65.51" y="102.9" width="34.58" height="13.73" style="fill:none;stroke:#344154;stroke-linecap:round;stroke-linejoin:round;stroke-width:3px"/><circle cx="92.41" cy="109.76" r="1.29" style="fill:none;stroke:#344154;stroke-linecap:round;stroke-linejoin:round;stroke-width:3px"/></g></g></g></svg>