<svg xmlns="http://www.w3.org/2000/svg" viewBox="0 0 66.5 42.04"><title>user-link-7</title><g id="dd6177db-4e2f-4d3c-b099-c54485efa7cc" data-name="Layer 2"><g id="53ef799a-94c6-41de-af3a-d474a48e5c35" data-name="Icon Set"><polygon points="2.92 2.02 62.42 2.94 36.01 22.86 33.19 26.11 5.75 3.94 2.92 2.02" style="fill:#ffbf00"/><path d="M62.4,0h0L4.1.06C1.8.06,0,2.23,0,5V37.08c0,2.78,1.8,5,4.1,5H62.4c2.3,0,4.1-2.18,4.1-5V5C66.5,2.18,64.7,0,62.4,0ZM3.5,5.79,22.89,21,3.5,36.31Zm29.75,19L6.32,3.55,60.25,3.5Zm-7.53-1.47,6.44,5.07a1.75,1.75,0,0,0,2.16,0l6.44-5.07,19.4,15.27H6.32ZM43.61,21,63,5.79V36.31Z" style="fill:#283f53"/></g></g></svg>