<svg xmlns="http://www.w3.org/2000/svg" xmlns:xlink="http://www.w3.org/1999/xlink" viewBox="0 0 36 44"><defs><clipPath id="e4907f06-0b46-4b8e-86e2-455d6b413183"><rect width="36" height="44" style="fill:none"/></clipPath></defs><title>userpic</title><g id="d497e1b5-05e3-4a5a-b080-b363b7e6d15c" data-name="Layer 2"><g id="03d05cf2-603f-4f23-ad50-71f6c668fc8e" data-name="Layer 1"><g style="clip-path:url(#e4907f06-0b46-4b8e-86e2-455d6b413183)"><path d="M36,42a2,2,0,0,1-4,0A14,14,0,0,0,4,42a2,2,0,0,1-4,0,18,18,0,0,1,36,0M18,22A11,11,0,1,1,29,11,11,11,0,0,1,18,22m0-4a7,7,0,1,0-7-7,7,7,0,0,0,7,7" style="fill:#c3c3c3"/></g></g></g></svg>