<svg xmlns="http://www.w3.org/2000/svg" viewBox="0 0 60 59.76"><title>wallet</title><g id="5cb65953-2c2f-46b6-884a-7b033d3c5876" data-name="Layer 2"><g id="ab1018ac-124a-4b9d-af14-52ce24b75896" data-name="Layer 1"><path d="M9,11.76h2a1,1,0,1,0,0-2H9a1,1,0,1,0,0,2Zm6,0h2a1,1,0,1,0,0-2H15a1,1,0,1,0,0,2Zm-9.49.54a1,1,0,0,0-.83-1.82,8,8,0,0,0-1.92,1.23,1,1,0,0,0,1.31,1.51A6,6,0,0,1,5.51,12.3ZM29,23.76H27a1,1,0,1,0,0,2h2a1,1,0,1,0,0-2ZM5.51,23.22a6,6,0,0,1-1.44-.92A1,1,0,1,0,2.76,23.8,8,8,0,0,0,4.68,25a1,1,0,1,0,.83-1.82ZM41,23.76H39a1,1,0,1,0,0,2h2a1,1,0,1,0,0-2Zm12,0H51a1,1,0,1,0,0,2h2a1,1,0,1,0,0-2Zm-42,0H9a1,1,0,1,0,0,2h2a1,1,0,1,0,0-2Zm36,0H45a1,1,0,1,0,0,2h2a1,1,0,1,0,0-2Zm-12,0H33a1,1,0,1,0,0,2h2a1,1,0,1,0,0-2Zm-12,0H21a1,1,0,1,0,0,2h2a1,1,0,1,0,0-2Zm-6,0H15a1,1,0,1,0,0,2h2a1,1,0,1,0,0-2Zm12,30H27a1,1,0,0,0,0,2h2a1,1,0,0,0,0-2Zm9,1a1,1,0,0,0,1,1h2a1,1,0,0,0,0-2H39A1,1,0,0,0,38,54.76Zm7,1h2a1,1,0,0,0,0-2H45a1,1,0,0,0,0,2Zm6,0h2a1,1,0,1,0,0-2H51a1,1,0,1,0,0,2ZM5.51,53.22a6,6,0,0,1-1.44-.92A1,1,0,1,0,2.76,53.8,8,8,0,0,0,4.68,55a1,1,0,0,0,.83-1.82ZM17,53.76H15a1,1,0,0,0,0,2h2a1,1,0,0,0,0-2Zm-6,0H9a1,1,0,1,0,0,2h2a1,1,0,0,0,0-2Zm24,0H33a1,1,0,0,0,0,2h2a1,1,0,1,0,0-2Zm-12,0H21a1,1,0,1,0,0,2h2a1,1,0,1,0,0-2Zm21-15a4,4,0,1,0,4-4A4,4,0,0,0,44,38.76Zm4-2a2,2,0,1,1-2,2A2,2,0,0,1,48,36.76Zm-5.06-31L37.51.32a1.17,1.17,0,0,0-1.61,0l-2,2-2-2a1.17,1.17,0,0,0-1.61,0L24.76,5.76H8a8,8,0,0,0-8,8V52.61a7.16,7.16,0,0,0,7.15,7.15H60v-54Zm-7.68-2L36.7,2.35l3.41,3.41h0l14,14H48.72L37.46,8.49a1.08,1.08,0,0,0-.75-.31l-.47,0L24.68,19.76H19.29l16-16Zm10.63,16H27.51l9.19-9.19Zm-18.31-14L31,2.35l1.44,1.44L18.76,17.46l-2.3,2.3H13.59l14-14ZM8,7.76H22.76L20.7,9.82a1,1,0,0,0-.63.63l-1.4,1.4-7.9,7.9H8a6,6,0,0,1,0-12Zm50,36H47a5,5,0,0,1,0-10H58Zm0-20H57a1,1,0,1,0,0,2h1v6H47a7,7,0,1,0,0,14H58v8H57a1,1,0,0,0,0,2h1v2H7.15A5.16,5.16,0,0,1,2,52.61V50.4a1,1,0,0,0,.24-1A6,6,0,0,1,2,47.76V20.4a1,1,0,0,0,.24-1c0-.06,0-.13,0-.2l.28.28.26.24.34.29.29.21.37.25.3.19.4.21.32.15.44.17.33.12L6,21.5l.32.08.55.09.28,0a8,8,0,0,0,.85,0H58Zm0-4H56.94l-8-8H49a1,1,0,1,0,0-2H47l-2-2H58Zm-5-8h2a1,1,0,1,0,0-2H53a1,1,0,1,0,0,2Z" style="fill:#616379"/></g></g></svg>