<svg xmlns="http://www.w3.org/2000/svg" xmlns:xlink="http://www.w3.org/1999/xlink" viewBox="0 0 14.15 24.01"><defs><clipPath id="617a47ae-3e67-466e-881d-b098be38347a" transform="translate(0 0)"><rect width="14.15" height="24.01" style="fill:none"/></clipPath></defs><title>catalog-item-2</title><g id="bae42e1b-9caa-40f5-8a67-7d9dfa4fcca4" data-name="Layer 2"><g id="6ef8d93a-1fc0-4083-9bf2-e68e505b5fb7" data-name="Layer 1"><g style="clip-path:url(#617a47ae-3e67-466e-881d-b098be38347a)"><g style="clip-path:url(#617a47ae-3e67-466e-881d-b098be38347a)"><path d="M13.63,1.5A1,1,0,0,0,12.76,0H6.7A1,1,0,0,0,5.8.55l-5.55,11A1,1,0,0,0,1.14,13H3.7L.07,22.65a1,1,0,0,0,1.69,1l12.14-14A1,1,0,0,0,13.14,8H9.88ZM3.91,18.13l2.17-5.77A1,1,0,0,0,5.14,11H2.77L7.31,2H11L7.28,8.5A1,1,0,0,0,8.14,10H11Z" transform="translate(0 0)"/></g></g></g></g></svg>