<svg xmlns="http://www.w3.org/2000/svg" xmlns:xlink="http://www.w3.org/1999/xlink" viewBox="0 0 50.07 90"><defs><clipPath id="4c7f73fc-b7d6-4ade-ada4-b2d8ae6fee9e" transform="translate(-0.06 -0.05)"><rect x="0.08" y="0.04" width="50" height="90" transform="translate(-0.08 0.05) rotate(-0.1)" style="fill:none"/></clipPath></defs><title>catalog-item-4</title><g id="b4a09e2d-4064-4e60-93b8-4f492cc931c7" data-name="Layer 2"><g id="6b1171c7-a511-48e4-9590-7105d2383bf2" data-name="Layer 1"><g style="clip-path:url(#4c7f73fc-b7d6-4ade-ada4-b2d8ae6fee9e)"><g style="clip-path:url(#4c7f73fc-b7d6-4ade-ada4-b2d8ae6fee9e)"><path d="M25,0c-3.35,0-6.11,1.75-7.09,4.23A9,9,0,0,0,15,3.81c-4.21,0-7.5,2.76-7.49,6.26l0,8.68C2.92,22.28,0,27.18.06,32.59L.13,70.72A17.09,17.09,0,0,0,6.4,83.5a26.22,26.22,0,0,0,10,5.33A31.41,31.41,0,0,0,25.16,90c13.78,0,25-8.74,25-19.42L50.06,32.5c0-5.41-2.89-10.3-7.52-13.81l0-8.68c0-3.5-3.31-6.24-7.51-6.24a9,9,0,0,0-2.9.47C31.12,1.78,28.35,0,25,0m.15,85c-11,0-20-6.41-20-14.34l0-26.51c4.57,4.7,11.84,7.74,20,7.73s15.43-3.08,20-7.8l0,26.51c0,7.93-8.95,14.39-20,14.41M28.76,6.29C28.76,7.64,27,8.79,25,8.8S21.26,7.66,21.26,6.3,23,3.8,25,3.8s3.75,1.14,3.75,2.49M35,7.53c2,0,3.75,1.14,3.75,2.49s-1.71,2.5-3.75,2.51S31.27,11.39,31.27,10,33,7.53,35,7.53m-23.69,35v-5l0-16a7.47,7.47,0,0,0,7.49,0,122.17,122.17,0,0,1-2,16c-.41,2.44-.86,5-1.33,7.62a21.11,21.11,0,0,1-4.25-2.24,1.2,1.2,0,0,0,.07-.36m13.76,4.35a26.85,26.85,0,0,1-7.18-1c.53-2.92,1-5.74,1.46-8.4.8-4.79,1.41-9,1.71-12.39a7.22,7.22,0,0,0,4,1.13,7.36,7.36,0,0,0,3.5-.87c-.32,3.3-.94,7.49-1.72,12.11-.5,3-1.06,6.15-1.64,9.37h-.1M15,15.06c2,0,3.75,1.14,3.75,2.49s-1.71,2.5-3.75,2.51-3.75-1.14-3.75-2.49S13,15.07,15,15.06m23.75,2.46c0,1.36-1.71,2.5-3.75,2.51s-3.75-1.14-3.75-2.49S33,15,35,15s3.75,1.14,3.75,2.49M25,23.8c-2,0-3.75-1.14-3.75-2.49S23,18.8,25,18.8s3.75,1.14,3.75,2.49S27.07,23.79,25,23.8m3.73-10c0,1.36-1.71,2.5-3.75,2.51s-3.75-1.14-3.75-2.49S23,11.3,25,11.3s3.75,1.14,3.75,2.49m.59,23.75a119.08,119.08,0,0,0,1.91-16,7.27,7.27,0,0,0,3.76,1,7.35,7.35,0,0,0,3.51-.87c-.38,4.12-1.2,9.71-2.2,15.87-.39,2.4-.81,4.89-1.23,7.42a25.39,25.39,0,0,1-7.36,1.83c.58-3.22,1.13-6.32,1.61-9.23M18.77,10.06c0,1.36-1.71,2.5-3.75,2.51s-3.75-1.14-3.75-2.49S13,7.57,15,7.56s3.75,1.14,3.75,2.49M38.9,42.88c-.33.23-.66.45-1,.67q.49-2.88.93-5.62v4.59a1.26,1.26,0,0,0,.07.36M8.81,32.57l0,8.35a11.83,11.83,0,0,1-3.77-8.34,11.83,11.83,0,0,1,3.73-8.35Zm36.25-.07a11.83,11.83,0,0,1-3.73,8.36l0-8.35,0-8.35a11.83,11.83,0,0,1,3.77,8.34" transform="translate(-0.06 -0.05)"/></g></g></g></g></svg>