<svg xmlns="http://www.w3.org/2000/svg" xmlns:xlink="http://www.w3.org/1999/xlink" viewBox="0 0 54 54"><defs><clipPath id="2f86785b-c033-4867-b178-1818294cb4a1"><rect x="3" y="3" width="48" height="48" style="fill:none"/></clipPath><clipPath id="47a142b5-32ee-4aae-8771-68281b2b93ee"><path d="M27,27A11,11,0,1,1,38,16,11,11,0,0,1,27,27Zm0-4a7,7,0,1,0-7-7,7,7,0,0,0,7,7ZM47.82,37.16a12.84,12.84,0,0,1,.81,3.32c.11.74.2,1.53.28,2.32,0,.27,0,.53.07.76l0,.3V44a5,5,0,0,1-5,5H10a5,5,0,0,1-5-5v-.14l0-.3c0-.23,0-.49.07-.76.08-.79.17-1.57.28-2.32a12.84,12.84,0,0,1,.81-3.32C7.72,33.83,19,29,27,29s19.28,4.83,20.82,8.16ZM44,38.69a10.32,10.32,0,0,0-1.17-.86,29.08,29.08,0,0,0-4.19-2.16A30.86,30.86,0,0,0,27,33a30.86,30.86,0,0,0-11.62,2.67,29.08,29.08,0,0,0-4.19,2.16,10.32,10.32,0,0,0-1.17.86l-.24.23a12.5,12.5,0,0,0-.45,2.15c-.1.67-.18,1.39-.25,2.12,0,.37-.06.68-.08.87A1,1,0,0,0,10,45H44a1,1,0,0,0,1-.95c0-.2,0-.5-.08-.87-.07-.73-.15-1.45-.25-2.12a12.5,12.5,0,0,0-.45-2.15L44,38.69Z" style="fill:none;clip-path:url(#2f86785b-c033-4867-b178-1818294cb4a1)"/></clipPath></defs><title>user</title><g id="c994b720-eed8-435f-942e-1eba686a8bf5" data-name="Layer 2"><g id="a28c7f01-a4e1-40bd-942a-3ed75c7a07d2" data-name="Layer 1"><g style="clip-path:url(#47a142b5-32ee-4aae-8771-68281b2b93ee)"><rect width="54" height="54"/></g></g></g></svg>