<svg xmlns="http://www.w3.org/2000/svg" xmlns:xlink="http://www.w3.org/1999/xlink" viewBox="0 0 63 63"><defs><clipPath id="4d5e6862-275b-4299-ae93-899732a0dd7f" transform="translate(0 0)"><rect width="63" height="63" style="fill:none"/></clipPath></defs><title>advantages-item-3</title><g id="43ecb69b-1afb-4858-89e2-a8b1b3b7540c" data-name="Layer 2"><g id="1a52a248-926b-4312-93af-5470b5cb80cf" data-name="Layer 1"><g style="clip-path:url(#4d5e6862-275b-4299-ae93-899732a0dd7f)"><line x1="2.5" y1="44" x2="2.5" y2="45" style="fill:none;stroke:#263238;stroke-linecap:round;stroke-linejoin:round"/><line x1="2.5" y1="23" x2="2.5" y2="42" style="fill:none;stroke:#263238;stroke-linecap:round;stroke-linejoin:round"/><line x1="60.5" y1="36" x2="60.5" y2="37" style="fill:none;stroke:#263238;stroke-linecap:round;stroke-linejoin:round"/><line x1="60.5" y1="15" x2="60.5" y2="34" style="fill:none;stroke:#263238;stroke-linecap:round;stroke-linejoin:round"/><line x1="8.71" y1="2.5" x2="8.71" y2="6.5" style="fill:none;stroke:#263238;stroke-linecap:round;stroke-linejoin:round"/><line x1="10.71" y1="4.5" x2="6.71" y2="4.5" style="fill:none;stroke:#263238;stroke-linecap:round;stroke-linejoin:round"/><line x1="2.5" y1="10.5" x2="2.5" y2="14.5" style="fill:none;stroke:#263238;stroke-linecap:round;stroke-linejoin:round"/><g style="clip-path:url(#4d5e6862-275b-4299-ae93-899732a0dd7f)"><line x1="4.5" y1="12.5" x2="0.5" y2="12.5" style="fill:none;stroke:#263238;stroke-linecap:round;stroke-linejoin:round"/><path d="M55.5,10.5V48A2.5,2.5,0,0,1,53,50.5H10A2.5,2.5,0,0,1,7.5,48V10.5" transform="translate(0 0)" style="fill:none;stroke:#263238;stroke-linecap:round;stroke-linejoin:round"/><path d="M60,8.5H3A2.5,2.5,0,0,1,.5,6V3A2.5,2.5,0,0,1,3,.5H60A2.5,2.5,0,0,1,62.5,3V6A2.5,2.5,0,0,1,60,8.5" transform="translate(0 0)" style="fill:#3eafb7"/><rect x="0.5" y="0.5" width="62" height="8" rx="2.5" ry="2.5" style="fill:none;stroke:#263238;stroke-linecap:round;stroke-linejoin:round"/><rect x="11.5" y="21.5" width="6" height="20" rx="1" ry="1" style="fill:none;stroke:#263238;stroke-linecap:round;stroke-linejoin:round"/><path d="M34.5,41.5h-4a1,1,0,0,1-1-1v-25a1,1,0,0,1,1-1h4a1,1,0,0,1,1,1v25a1,1,0,0,1-1,1" transform="translate(0 0)" style="fill:#3eafb7"/><rect x="29.5" y="14.5" width="6" height="27" rx="1" ry="1" style="fill:none;stroke:#263238;stroke-linecap:round;stroke-linejoin:round"/><path d="M25.5,41.5h-4a1,1,0,0,1-1-1v-12a1,1,0,0,1,1-1h4a1,1,0,0,1,1,1v12a1,1,0,0,1-1,1" transform="translate(0 0)" style="fill:#ffd740"/><rect x="20.5" y="27.5" width="6" height="14" rx="1" ry="1" style="fill:none;stroke:#263238;stroke-linecap:round;stroke-linejoin:round"/><line x1="41.5" y1="28.5" x2="51.5" y2="28.5" style="fill:none;stroke:#263238;stroke-linecap:round;stroke-linejoin:round"/><line x1="41.5" y1="35.5" x2="51.5" y2="35.5" style="fill:none;stroke:#263238;stroke-linecap:round;stroke-linejoin:round"/><line x1="41.5" y1="38.5" x2="51.5" y2="38.5" style="fill:none;stroke:#263238;stroke-linecap:round;stroke-linejoin:round"/><line x1="41.5" y1="41.5" x2="46.5" y2="41.5" style="fill:none;stroke:#263238;stroke-linecap:round;stroke-linejoin:round"/><line x1="31.5" y1="52.5" x2="31.5" y2="56.5" style="fill:none;stroke:#263238;stroke-linecap:round;stroke-linejoin:round"/><path d="M34.5,59.5a3,3,0,1,1-3-3,3,3,0,0,1,3,3" transform="translate(0 0)" style="fill:#3eafb7"/><circle cx="31.5" cy="59.5" r="3" style="fill:none;stroke:#263238;stroke-linecap:round;stroke-linejoin:round"/><polyline points="52.5 16.5 52.5 11.5 47.5 11.5" style="fill:none;stroke:#263238;stroke-linecap:round;stroke-linejoin:round"/><line x1="62.5" y1="49" x2="58.5" y2="49" style="fill:none;stroke:#263238;stroke-linecap:round;stroke-linejoin:round"/><line x1="60.5" y1="47" x2="60.5" y2="51" style="fill:none;stroke:#263238;stroke-linecap:round;stroke-linejoin:round"/><line x1="55.5" y1="55.5" x2="51.5" y2="55.5" style="fill:none;stroke:#263238;stroke-linecap:round;stroke-linejoin:round"/><line x1="53.5" y1="53.5" x2="53.5" y2="57.5" style="fill:none;stroke:#263238;stroke-linecap:round;stroke-linejoin:round"/></g></g></g></g></svg>