<svg xmlns="http://www.w3.org/2000/svg" viewBox="0 0 23 26"><title>calendar</title><g id="620a7a3a-ae02-45a4-9c98-acbf432a0eee" data-name="Layer 2"><g id="74186ce9-073c-4f80-aa13-1d3a6be82577" data-name="Layer 1"><rect y="2" width="1" height="24" style="fill:#bbb"/><rect x="1" y="25" width="22" height="1" style="fill:#bbb"/><rect x="22" y="2" width="1" height="22.96" style="fill:#bbb"/><rect x="1" y="2" width="3" height="1" style="fill:#bbb"/><rect x="3" width="1" height="5" style="fill:#bbb"/><rect x="4" width="4" height="1" style="fill:#bbb"/><rect x="7" y="1" width="1" height="4" style="fill:#bbb"/><rect x="3" y="4" width="4" height="1" style="fill:#bbb"/><rect x="8" y="2" width="7" height="1" style="fill:#bbb"/><rect x="15" width="1" height="5" style="fill:#bbb"/><rect x="19" y="2" width="4" height="1" style="fill:#bbb"/><rect x="16" width="4" height="1" style="fill:#bbb"/><rect x="19" width="1" height="5" style="fill:#bbb"/><rect x="16" y="4" width="4" height="1" style="fill:#bbb"/><rect x="3" y="6" width="5" height="5" style="fill:#bbb"/><rect x="3" y="12" width="5" height="5" style="fill:#bbb"/><rect x="3" y="18" width="5" height="5" style="fill:#bbb"/><rect x="9" y="6" width="5" height="5" style="fill:#bbb"/><rect x="9" y="12" width="5" height="5" style="fill:#bbb"/><rect x="9" y="18" width="5" height="5" style="fill:#bbb"/><rect x="15" y="6" width="5" height="5" style="fill:#bbb"/><rect x="15" y="12" width="5" height="5" style="fill:#bbb"/><rect x="15" y="18" width="5" height="5" style="fill:#bbb"/></g></g></svg>