<svg xmlns="http://www.w3.org/2000/svg" xmlns:xlink="http://www.w3.org/1999/xlink" viewBox="0 0 53.46 54"><defs><clipPath id="10e52e02-1d18-4a49-981b-0ae37a795dd7"><rect width="48" height="48" style="fill:none"/></clipPath><clipPath id="7e7b4aeb-c243-48b5-ae0c-082b5e25ff68" transform="translate(3 3)"><path d="M12.08,23.56a2,2,0,0,1-.06-.29L8.38,6H4A2,2,0,0,1,4,2h6a2,2,0,0,1,2,1.59L13.52,11H41a4.35,4.35,0,0,1,4.36,5.35l-2.8,13.79A5.8,5.8,0,0,1,37,34.67l-18-.1A5.85,5.85,0,0,1,13.44,30l-1.36-6.45ZM16.5,25l.86,4.2A1.86,1.86,0,0,0,19,30.57l18,.1a1.81,1.81,0,0,0,1.62-1.33L39.52,25Zm-.82-4H40.33l1.11-5.45c.08-.39-.05-.55-.44-.55H14.45l1.23,6ZM17,46a4,4,0,1,1,4-4,4,4,0,0,1-4,4Zm22,0a4,4,0,1,1,4-4,4,4,0,0,1-4,4Z" style="fill:none;clip-path:url(#10e52e02-1d18-4a49-981b-0ae37a795dd7)"/></clipPath></defs><title>cart</title><g id="ef163f02-3472-4841-85cd-a320bc165a06" data-name="Layer 2"><g id="cf05021c-a55b-4773-a95c-97a4cd8d75ad" data-name="Layer 1"><g style="clip-path:url(#7e7b4aeb-c243-48b5-ae0c-082b5e25ff68)"><rect width="53.46" height="54"/></g></g></g></svg>