<svg xmlns="http://www.w3.org/2000/svg" xmlns:xlink="http://www.w3.org/1999/xlink" viewBox="0 0 10.96 14"><defs><clipPath id="b6ddbce6-0067-49cd-a69c-76f6b189addc" transform="translate(0 0)"><rect width="10.96" height="14" style="fill:none"/></clipPath></defs><title>catalog-item-8</title><g id="1abe0c61-707e-4655-8a60-78698cab3000" data-name="Layer 2"><g id="bb8b49c5-750b-4a5a-a863-477d69f08352" data-name="Layer 1"><g style="clip-path:url(#b6ddbce6-0067-49cd-a69c-76f6b189addc)"><g style="clip-path:url(#b6ddbce6-0067-49cd-a69c-76f6b189addc)"><path d="M5.48,0a.5.5,0,0,0-.35.15,3.54,3.54,0,0,1-2,1.22A4.85,4.85,0,0,1,.69.89.5.5,0,0,0,0,1.17a.51.51,0,0,0,0,.19C0,4.77.1,7.22.82,9.21a8.72,8.72,0,0,0,4.42,4.73.5.5,0,0,0,.48,0,8.72,8.72,0,0,0,4.42-4.73c.72-2,.82-4.44.82-7.87a.5.5,0,0,0-.5-.5.49.49,0,0,0-.19,0,4.82,4.82,0,0,1-2.39.49,3.54,3.54,0,0,1-2-1.22A.5.5,0,0,0,5.48,0m0,1.14A4.35,4.35,0,0,0,7.74,2.36a5.21,5.21,0,0,0,2.19-.42A22.18,22.18,0,0,1,9.2,8.87a7.49,7.49,0,0,1-3.72,4,7.49,7.49,0,0,1-3.72-4A22.17,22.17,0,0,1,1,1.95a5.21,5.21,0,0,0,2.19.41A4.37,4.37,0,0,0,5.48,1.14" transform="translate(0 0)"/></g></g></g></g></svg>