<svg xmlns="http://www.w3.org/2000/svg" xmlns:xlink="http://www.w3.org/1999/xlink" viewBox="0 0 88.91 65.47"><defs><clipPath id="c11d2e45-b48e-4205-bb57-c60df411e11f" transform="translate(0 0)"><rect width="88.91" height="65.47" style="fill:none"/></clipPath></defs><title>catalog-item-10</title><g id="4c071086-32cc-448f-9c8c-346f8af2c4eb" data-name="Layer 2"><g id="0eb34640-df42-417e-aad5-f8357388636c" data-name="Layer 1"><g style="clip-path:url(#c11d2e45-b48e-4205-bb57-c60df411e11f)"><g style="clip-path:url(#c11d2e45-b48e-4205-bb57-c60df411e11f)"><path d="M82.8,19.37H75.87a2.25,2.25,0,0,0-2.26,2.26v5.05H69.74v-7a2.25,2.25,0,0,0-2.25-2.25h-10V12.62a2.26,2.26,0,0,0-2.26-2.25H44.81V4.51h8.53a2.25,2.25,0,1,0,0-4.51H22.7a2.25,2.25,0,1,0,0,4.51h8.88v5.86H22.7a2.26,2.26,0,0,0-2.25,2.25v4.82H12.25A2.25,2.25,0,0,0,10,19.7V34H4.51V19.71a2.25,2.25,0,1,0-4.51,0V53.18a2.25,2.25,0,1,0,4.51,0V38.48H10v14.7a2.25,2.25,0,0,0,2.26,2.26H33.33l7.54,9.2a2.25,2.25,0,0,0,1.74.83H67.48a2.25,2.25,0,0,0,2.25-2.26V52.31h3.88v5.8a2.26,2.26,0,0,0,2.26,2.26H82.8a2.26,2.26,0,0,0,2.11-1.45c8.94-23.32.19-37.87-.19-38.48a2.25,2.25,0,0,0-1.92-1.07M36.09,4.51H40.3v5.86H36.09ZM81.23,55.86h-3.1v-5.8a2.25,2.25,0,0,0-2.25-2.26H67.48a2.25,2.25,0,0,0-2.26,2.26V61H43.69l-7.54-9.2a2.25,2.25,0,0,0-1.75-.83H14.51V22h8.2A2.25,2.25,0,0,0,25,19.7V14.88h28V19.7A2.25,2.25,0,0,0,55.18,22h10v7a2.25,2.25,0,0,0,2.26,2.26h6.13v7.89a2.25,2.25,0,1,0,4.51,0V23.88h3.31c1.62,3.43,5.84,15-.21,32" transform="translate(0 0)"/><path d="M46.27,32H38.73L44,22.92A2.26,2.26,0,1,0,40,20.68L32.89,33.15a2.26,2.26,0,0,0,2,3.38H42.2L36.9,45a2.25,2.25,0,0,0,3.83,2.39l7.46-11.94A2.26,2.26,0,0,0,46.27,32" transform="translate(0 0)"/></g></g></g></g></svg>