<svg xmlns="http://www.w3.org/2000/svg" viewBox="0 0 60 64"><defs><clipPath id="a"><path fill="none" d="M0 0h60v64H0z"/></clipPath></defs><title>advantages-item-1</title><g clip-path="url(#a)" data-name="Layer 1"><path d="M48.44 35.5A19.94 19.94 0 1 1 28.5 15.56 19.94 19.94 0 0 1 48.44 35.5" fill="#3eafb7"/><path fill="#ffd740" d="M47.5 24.5l4-12h-6l12-12-4 12h6l-12 12z"/><path fill="none" stroke="#263238" stroke-linecap="round" stroke-linejoin="round" d="M47.5 24.5l4-12h-6l12-12-4 12h6l-12 12z"/><path d="M31 43.5h-5a7.5 7.5 0 0 1-7.5-7.5v-8.5h20V36a7.5 7.5 0 0 1-7.5 7.5" fill="#fff"/><path d="M31 43.5h-5a7.5 7.5 0 0 1-7.5-7.5v-8.5h20V36a7.5 7.5 0 0 1-7.5 7.5z" fill="none" stroke="#263238" stroke-linecap="round" stroke-linejoin="round"/><path fill="#fff" d="M33.5 30.5h2v2"/><path fill="none" stroke="#263238" stroke-linecap="round" stroke-linejoin="round" d="M33.5 30.5h2v2M27 57.5v-11h3v11"/><path d="M23.5 23.5v-8a2 2 0 1 0-4 0v8z" fill="#fff"/><path d="M23.5 23.5v-8a2 2 0 1 0-4 0v8z" fill="none" stroke="#263238" stroke-linecap="round" stroke-linejoin="round"/><path d="M37.5 23.5v-8a2 2 0 0 0-4 0v8z" fill="#fff"/><path d="M37.5 23.5v-8a2 2 0 0 0-4 0v8z" fill="none" stroke="#263238" stroke-linecap="round" stroke-linejoin="round"/><path d="M39.5 27.5h-22a1 1 0 0 1-1-1v-2a1 1 0 0 1 1-1h22a1 1 0 0 1 1 1v2a1 1 0 0 1-1 1" fill="#fff"/><rect x="16.5" y="23.5" width="24" height="4" rx="1" ry="1" fill="none" stroke="#263238" stroke-linecap="round" stroke-linejoin="round"/><path d="M30.5 43.5h-4a1 1 0 0 0-1 1v1a1 1 0 0 0 1 1h4a1 1 0 0 0 1-1v-1a1 1 0 0 0-1-1" fill="#fff"/><rect x="25.5" y="43.5" width="6" height="3" rx="1" ry="1" fill="none" stroke="#263238" stroke-linecap="round" stroke-linejoin="round"/><path fill="#fff" d="M23.53 38h10"/><path fill="none" stroke="#263238" stroke-linecap="round" stroke-linejoin="round" d="M23.53 38h10"/><path fill="#fff" d="M23.53 35h10"/><path fill="none" stroke="#263238" stroke-linecap="round" stroke-linejoin="round" d="M23.53 35h10M.5 35.5a28 28 0 0 1 28-28M30.5 7.5h1M56.5 35.5a28 28 0 0 1-28 28M25.5 63.5h1M14.56 45.44h-4M12.56 43.44v4M7.56 51.94h-4M5.56 49.94v4"/></g></svg>