<svg xmlns="http://www.w3.org/2000/svg" viewBox="0 0 63 63"><defs><clipPath id="a"><path fill="none" d="M0 0h63v63H0z"/></clipPath></defs><title>advantages-item-3</title><g clip-path="url(#a)" data-name="Layer 1"><path fill="none" stroke="#263238" stroke-linecap="round" stroke-linejoin="round" d="M2.5 44v1M2.5 23v19M60.5 36v1M60.5 15v19M8.71 2.5v4M10.71 4.5h-4M2.5 10.5v4"/><g clip-path="url(#a)"><path fill="none" stroke="#263238" stroke-linecap="round" stroke-linejoin="round" d="M4.5 12.5h-4M55.5 10.5V48a2.5 2.5 0 0 1-2.5 2.5H10A2.5 2.5 0 0 1 7.5 48V10.5"/><path d="M60 8.5H3A2.5 2.5 0 0 1 .5 6V3A2.5 2.5 0 0 1 3 .5h57A2.5 2.5 0 0 1 62.5 3v3A2.5 2.5 0 0 1 60 8.5" fill="#3eafb7"/><rect x=".5" y=".5" width="62" height="8" rx="2.5" ry="2.5" fill="none" stroke="#263238" stroke-linecap="round" stroke-linejoin="round"/><rect x="11.5" y="21.5" width="6" height="20" rx="1" ry="1" fill="none" stroke="#263238" stroke-linecap="round" stroke-linejoin="round"/><path d="M34.5 41.5h-4a1 1 0 0 1-1-1v-25a1 1 0 0 1 1-1h4a1 1 0 0 1 1 1v25a1 1 0 0 1-1 1" fill="#3eafb7"/><rect x="29.5" y="14.5" width="6" height="27" rx="1" ry="1" fill="none" stroke="#263238" stroke-linecap="round" stroke-linejoin="round"/><path d="M25.5 41.5h-4a1 1 0 0 1-1-1v-12a1 1 0 0 1 1-1h4a1 1 0 0 1 1 1v12a1 1 0 0 1-1 1" fill="#ffd740"/><rect x="20.5" y="27.5" width="6" height="14" rx="1" ry="1" fill="none" stroke="#263238" stroke-linecap="round" stroke-linejoin="round"/><path fill="none" stroke="#263238" stroke-linecap="round" stroke-linejoin="round" d="M41.5 28.5h10M41.5 35.5h10M41.5 38.5h10M41.5 41.5h5M31.5 52.5v4"/><path d="M34.5 59.5a3 3 0 1 1-3-3 3 3 0 0 1 3 3" fill="#3eafb7"/><circle cx="31.5" cy="59.5" r="3" fill="none" stroke="#263238" stroke-linecap="round" stroke-linejoin="round"/><path fill="none" stroke="#263238" stroke-linecap="round" stroke-linejoin="round" d="M52.5 16.5v-5h-5M62.5 49h-4M60.5 47v4M55.5 55.5h-4M53.5 53.5v4"/></g></g></svg>