<svg xmlns="http://www.w3.org/2000/svg" viewBox="0 0 61 61"><defs><clipPath id="a"><path fill="none" d="M0 0h61v61H0z"/></clipPath></defs><title>advantages-item-4</title><g clip-path="url(#a)" data-name="Layer 1"><rect x="22.5" y="3.5" width="12" height="4" rx="1" ry="1" fill="none" stroke="#263238" stroke-linecap="round" stroke-linejoin="round"/><path fill="none" stroke="#263238" stroke-linecap="round" stroke-linejoin="round" d="M25.5 7.5v2M31.5 9.5v-2"/><circle cx="28.5" cy="32.5" r="21" fill="none" stroke="#263238" stroke-linecap="round" stroke-linejoin="round"/><path d="M28.5 17.5v6a9 9 0 1 1-6.36 15.36L17.9 43.1a15 15 0 1 0 10.6-25.6" fill="#3eafb7"/><path fill="none" stroke="#263238" stroke-linecap="round" stroke-linejoin="round" d="M28.5 16.5v16L17.19 43.81M16.94 41.26a14.5 14.5 0 0 1 9.56-23.12M47.59 16.24l-1.41 1.41M43.35 14.82l1.41-1.41"/><rect x="45.74" y="10.76" width="3" height="6" rx="1" ry="1" transform="rotate(-44.99 47.243 13.765)" fill="none" stroke="#263238" stroke-linecap="round" stroke-linejoin="round"/><path d="M49.5.5a11 11 0 0 1 11 11M49.5 4.5a7 7 0 0 1 7 7M49.5 8.5a3 3 0 0 1 3 3M.5 32.5A28 28 0 0 1 19.5 6M.5 34.5v1M56.5 32.5a28 28 0 0 1-28 28M56.5 29.5v1M4.07 47.83h4M6.07 45.83v4M11.07 54.33h4M13.07 52.33v4" fill="none" stroke="#263238" stroke-linecap="round" stroke-linejoin="round"/></g></svg>