<svg xmlns="http://www.w3.org/2000/svg" viewBox="0 0 61 61"><defs><clipPath id="a"><path fill="none" d="M0 0h61v61H0z"/></clipPath></defs><title>advantages-item-2</title><g clip-path="url(#a)" data-name="Layer 1"><path d="M42.5 47.5h-24a5 5 0 0 1-5-5v-24a5 5 0 0 1 5-5h24a5 5 0 0 1 5 5v24a5 5 0 0 1-5 5" fill="#ffd740"/><rect x="13.5" y="13.5" width="34" height="34" rx="5" ry="5" fill="none" stroke="#263238" stroke-linecap="round" stroke-linejoin="round"/><path d="M39 16.5h3a2.5 2.5 0 0 1 2.5 2.5v3" fill="none" stroke="#263238" stroke-linecap="round" stroke-linejoin="round"/><path fill="#fff" d="M25.5 39.5l4-9h-4l10-9-4 9h4l-10 9z"/><path fill="none" stroke="#263238" stroke-linecap="round" stroke-linejoin="round" d="M25.5 39.5l4-9h-4l10-9-4 9h4l-10 9zM21.5 13.5v-5a1 1 0 0 1 2 0v5M29.5 13.5v-5a1 1 0 0 1 2 0v5M37.5 13.5v-5a1 1 0 0 1 2 0v5M20.5 60.5h-1M41.5 60.5h-19M40.5.5h1M19.5.5h19M60.5 40.5v1M60.5 19.5v19M.5 20.5v-1M.5 41.5v-19M41.5 9.5h5a5 5 0 0 1 5 5v5M33.5 9.5h2M25.5 9.5h2M9.5 19.5v-5a5 5 0 0 1 5-5h5M39.5 47.5v5a1 1 0 0 1-2 0v-5M31.5 47.5v5a1 1 0 0 1-2 0v-5M23.5 47.5v5a1 1 0 0 1-2 0v-5M19.5 51.5h-5a5 5 0 0 1-5-5v-5M27.5 51.5h-2M35.5 51.5h-2M51.5 41.5v5a5 5 0 0 1-5 5h-5M47.5 21.5h5a1 1 0 1 1 0 2h-5M47.5 29.5h5a1 1 0 0 1 0 2h-5M47.5 37.5h5a1 1 0 0 1 0 2h-5M51.5 33.5v2M51.5 25.5v2M13.5 39.5h-5a1 1 0 0 1 0-2h5M13.5 31.5h-5a1 1 0 0 1 0-2h5M13.5 23.5h-5a1 1 0 0 1 0-2h5M9.5 27.5v-2M9.5 35.5v-2"/></g></svg>