<svg xmlns="http://www.w3.org/2000/svg" viewBox="0 0 27 27"><defs><clipPath id="a"><path d="M6.76 18.79A5.61 5.61 0 0 0 8 15.5V10a5.5 5.5 0 0 1 11 0v5.5a5.6 5.6 0 0 0 1.24 3.29L21.3 20H5.71zM6 10v5.5a3.66 3.66 0 0 1-.74 2l-2.51 2.84A1 1 0 0 0 3.5 22H11a2.5 2.5 0 0 0 5 0h7.5a1 1 0 0 0 .75-1.66l-2.51-2.87a3.66 3.66 0 0 1-.74-2V10a7.5 7.5 0 1 0-15 0" fill="#656565"/></clipPath></defs><title>bell</title><g data-name="Layer 1"><path d="M6.76 18.79A5.61 5.61 0 0 0 8 15.5V10a5.5 5.5 0 0 1 11 0v5.5a5.6 5.6 0 0 0 1.24 3.29L21.3 20H5.71zM6 10v5.5a3.66 3.66 0 0 1-.74 2l-2.51 2.84A1 1 0 0 0 3.5 22H11a2.5 2.5 0 0 0 5 0h7.5a1 1 0 0 0 .75-1.66l-2.51-2.87a3.66 3.66 0 0 1-.74-2V10a7.5 7.5 0 1 0-15 0" fill="#656565"/><g clip-path="url(#a)"><path fill="#656565" d="M0 0h27v27H0z"/></g></g></svg>