<svg xmlns="http://www.w3.org/2000/svg" viewBox="0 0 54 60"><title>calc</title><path d="M50.8 8H40V5.73A5.74 5.74 0 0 0 34.27 0H5.73A5.74 5.74 0 0 0 0 5.73v48.54A5.74 5.74 0 0 0 5.73 60h28.54A5.74 5.74 0 0 0 40 54.27V42h10.8a3.21 3.21 0 0 0 3.2-3.2V11.2A3.21 3.21 0 0 0 50.8 8zM38 8v46.27A3.74 3.74 0 0 1 34.27 58H5.73A3.74 3.74 0 0 1 2 54.27V5.73A3.74 3.74 0 0 1 5.73 2h28.54A3.74 3.74 0 0 1 38 5.73zm4 32h-2V10h2zm4 0h-2V10h2zm6-1.2a1.2 1.2 0 0 1-1.2 1.2H48V10h2.8a1.21 1.21 0 0 1 1.2 1.2zM50 13a1 1 0 1 0 1 1 1 1 0 0 0-1-1zm0 5a1 1 0 1 0 1 1 1 1 0 0 0-1-1zM5 22h30V9H5zm2-11h26v9H7zm4-4a1 1 0 1 0 0-2H5a1 1 0 1 0 0 2zM6 31h8v-7H6zm2-5h4v3H8zm8 5h8v-7h-8zm2-5h4v3h-4zm8 5h8v-7h-8zm2-5h4v3h-4zM6 39h8v-7H6zm2-5h4v3H8zm8 5h8v-7h-8zm2-5h4v3h-4zm8 5h8v-7h-8zm2-5h4v3h-4zM6 47h8v-7H6zm2-5h4v3H8zm8 5h8v-7h-8zm2-5h4v3h-4zM6 56h8v-7H6zm2-5h4v3H8zm8 5h8v-7h-8zm2-5h4v3h-4zm8 5h8V40h-8zm2-14h4v12h-4zm-6.71-25.71l-1 1a1 1 0 1 0 1.41 1.41l1-1a1 1 0 0 0-1.41-1.41zm-3.91-4.22A1 1 0 0 0 17 12a1 1 0 0 0-.68.29l-1 1A1 1 0 0 0 16 15v3a1 1 0 0 0 2 0v-5a1 1 0 0 0-.62-.92zm9 0A1 1 0 0 0 26 12a1 1 0 0 0-.68.29l-1 1A1 1 0 0 0 25 15v3a1 1 0 0 0 2 0v-5a1 1 0 0 0-.62-.92zm4 0A1 1 0 0 0 30 12a1 1 0 0 0-.68.29l-1 1A1 1 0 0 0 29 15v3a1 1 0 0 0 2 0v-5a1 1 0 0 0-.62-.92z" fill="#616379" data-name="Layer 1"/></svg>