<svg xmlns="http://www.w3.org/2000/svg" viewBox="0 0 49 49"><title>card-online</title><g data-name="Layer 1" fill="#60637b"><path d="M18.35 45h-3.16a.5.5 0 0 1 0-1h3.17a.5.5 0 1 1 0 1zM12.38 4.52a.44.44 0 0 1-.19 0 .42.42 0 0 1-.19-.15.51.51 0 0 1-.12-.37.63.63 0 0 1 0-.19.45.45 0 0 1 .12-.14.41.41 0 0 1 .16-.11.51.51 0 0 1 .55.11.51.51 0 0 1 0 .7.49.49 0 0 1-.33.15zM21.16 4.52H15.7a.5.5 0 0 1 0-1h5.46a.5.5 0 0 1 0 1zM48.5 18.7H16.21a.5.5 0 0 1-.5-.5v-3.67a2 2 0 0 1 2-2H47a2 2 0 0 1 2 2v3.67a.5.5 0 0 1-.5.5zm-31.79-1H48v-3.17a1 1 0 0 0-1-1H17.71a1 1 0 0 0-1 1zM47 35.25H17.71a2 2 0 0 1-2-2V22.92a.5.5 0 0 1 .5-.5H48.5a.5.5 0 0 1 .5.5v10.33a2 2 0 0 1-2 2zM16.71 23.42v9.83a1 1 0 0 0 1 1H47a1 1 0 0 0 1-1v-9.83z"/><path d="M42 32.25a3 3 0 0 1-2-.77A3 3 0 0 1 40 27a3 3 0 1 1 2 5.23zm0-5a2 2 0 0 0 0 4 2 2 0 0 0 0-4z"/><path d="M38.66 32.25a3 3 0 1 1 2-5.23.5.5 0 0 1 0 .74 2 2 0 0 0 0 3 .5.5 0 0 1 0 .74 3 3 0 0 1-2 .75zm0-5a2 2 0 1 0 .92 3.75 3 3 0 0 1 0-3.55 2 2 0 0 0-.92-.2zM48.5 23.42H16.21a.5.5 0 0 1-.5-.5V18.2a.5.5 0 0 1 .5-.5H48.5a.5.5 0 0 1 .5.5v4.72a.5.5 0 0 1-.5.5zm-31.79-1H48V18.7H16.71z"/><path d="M30.92 49H2.63A2.63 2.63 0 0 1 0 46.38V2.63A2.63 2.63 0 0 1 2.63 0h28.29a2.63 2.63 0 0 1 2.62 2.63V13a.5.5 0 0 1-.5.5H17.71a1 1 0 0 0-1 1v18.75a1 1 0 0 0 1 1H33a.5.5 0 0 1 .5.5v11.63A2.63 2.63 0 0 1 30.92 49zM2.63 1A1.63 1.63 0 0 0 1 2.63v43.75A1.63 1.63 0 0 0 2.63 48h28.29a1.63 1.63 0 0 0 1.62-1.62V35.25H17.71a2 2 0 0 1-2-2V14.53a2 2 0 0 1 2-2h14.83v-9.9A1.63 1.63 0 0 0 30.92 1z"/><path d="M33 41.11H.5a.5.5 0 0 1-.5-.5V8.39a.5.5 0 0 1 .5-.5H33a.5.5 0 0 1 .5.5V13a.5.5 0 0 1-.5.5H17.71a1 1 0 0 0-1 1v18.75a1 1 0 0 0 1 1H33a.5.5 0 0 1 .5.5v5.86a.5.5 0 0 1-.5.5zm-32-1h31.54v-4.86H17.71a2 2 0 0 1-2-2V14.53a2 2 0 0 1 2-2h14.83V8.89H1z"/></g></svg>