<svg xmlns="http://www.w3.org/2000/svg" viewBox="0 0 53.46 54"><defs><clipPath id="a"><path fill="none" d="M3 3h48v48H3z"/></clipPath><clipPath id="b"><path d="M15.08 26.56a2 2 0 0 1-.06-.29L11.38 9H7a2 2 0 0 1 0-4h6a2 2 0 0 1 2 1.59L16.52 14H44a4.35 4.35 0 0 1 4.36 5.35l-2.8 13.79A5.8 5.8 0 0 1 40 37.67l-18-.1A5.85 5.85 0 0 1 16.44 33l-1.36-6.45zM19.5 28l.86 4.2A1.86 1.86 0 0 0 22 33.57l18 .1a1.81 1.81 0 0 0 1.62-1.33l.9-4.34zm-.82-4h24.65l1.11-5.45c.08-.39-.05-.55-.44-.55H17.45l1.23 6zM20 49a4 4 0 1 1 4-4 4 4 0 0 1-4 4zm22 0a4 4 0 1 1 4-4 4 4 0 0 1-4 4z" fill="none" clip-path="url(#a)"/></clipPath></defs><title>cart</title><g clip-path="url(#b)" data-name="Layer 1"><path d="M0 0h53.46v54H0z"/></g></svg>