<svg xmlns="http://www.w3.org/2000/svg" viewBox="0 0 10.96 14"><defs><clipPath id="a"><path fill="none" d="M0 0h10.96v14H0z"/></clipPath></defs><title>catalog-item-8</title><g clip-path="url(#a)" data-name="Layer 1"><path d="M5.48 0a.5.5 0 0 0-.35.15 3.54 3.54 0 0 1-2 1.22A4.85 4.85 0 0 1 .69.89a.5.5 0 0 0-.69.28.51.51 0 0 0 0 .19c0 3.41.1 5.86.82 7.85a8.72 8.72 0 0 0 4.42 4.73.5.5 0 0 0 .48 0 8.72 8.72 0 0 0 4.42-4.73c.72-2 .82-4.44.82-7.87a.5.5 0 0 0-.5-.5.49.49 0 0 0-.19 0 4.82 4.82 0 0 1-2.39.49 3.54 3.54 0 0 1-2-1.22.5.5 0 0 0-.4-.11m0 1.14a4.35 4.35 0 0 0 2.26 1.22 5.21 5.21 0 0 0 2.19-.42 22.18 22.18 0 0 1-.73 6.93 7.49 7.49 0 0 1-3.72 4 7.49 7.49 0 0 1-3.72-4A22.17 22.17 0 0 1 1 1.95a5.21 5.21 0 0 0 2.19.41 4.37 4.37 0 0 0 2.29-1.22"/></g></svg>