<svg xmlns="http://www.w3.org/2000/svg" viewBox="0 0 36.77 43.09"><defs><clipPath id="a"><path fill="none" d="M0 0h36.77v43.09H0z"/></clipPath></defs><title>catalog-item-7</title><g clip-path="url(#a)" data-name="Layer 1"><path d="M13.12 36.53h10.53V40H13.12zm-4.83-7h1.77v4H8.28zm4.83 0h10.53v4H13.12zm13.6 0h1.63v4h-1.64zm-13.6-13.6h10.53v10.5H13.12zM3.07 3.06h2.68v9.77H3.07zm5.74 0h19.34v9.77H8.81zm22.4 0h2.49v9.77h-2.49zM1.53 0L0 1.53v12.83l1.53 1.53h8.52v10.54h-3.3L5.22 28v7l1.53 1.53h3.3v5l1.53 1.53h13.6l1.53-1.53v-5h3.16L31.4 35v-7l-1.53-1.53h-3.16V15.89h8.52l1.53-1.53V1.53L35.23 0H1.53z"/></g></svg>