<svg xmlns="http://www.w3.org/2000/svg" viewBox="0 0 51 39"><title>catalog-item-11</title><g data-name="Слой 1" fill="#7f9091" stroke="#7f9091" stroke-miterlimit="10"><path d="M49.5.5h-48a1 1 0 0 0-1 1v20a1 1 0 0 0 1 1h48a1 1 0 0 0 1-1v-20a1 1 0 0 0-1-1zm-11 20h-26v-6h26zm10 0h-8v-7a1 1 0 0 0-1-1h-28a1 1 0 0 0-1 1v7h-8v-18h46z"/><path d="M23.5 8.5h4a1 1 0 0 0 0-2h-4a1 1 0 0 0 0 2zM25.5 26.5a1 1 0 0 0-1 1v10a1 1 0 0 0 2 0v-10a1 1 0 0 0-1-1zM17.5 26.5a1 1 0 0 0-1 1c0 4.88-2.29 9-5 9a1 1 0 0 0 0 2c3.92 0 7-4.83 7-11a1 1 0 0 0-1-1zM39.5 36.5c-2.71 0-5-4.12-5-9a1 1 0 0 0-2 0c0 6.17 3.08 11 7 11a1 1 0 0 0 0-2z"/></g></svg>