<svg xmlns="http://www.w3.org/2000/svg" viewBox="0 0 24.2 48.5"><defs><clipPath id="a"><path fill="none" d="M0 0h24.2v48.5H0z"/></clipPath></defs><title>catalog-item-9</title><g clip-path="url(#a)" data-name="Layer 1"><path d="M20.05 4.85h-2.2v-3.6a1 1 0 0 0-1-1h-9.4a1 1 0 0 0-1 1v3.6h-2.2a4 4 0 0 0-4 4v35.4a4 4 0 0 0 4 4h15.7a4 4 0 0 0 4-4V8.85a3.86 3.86 0 0 0-3.9-4m-11.6-2.6h7.4v2.6h-7.4zm13.6 42a2 2 0 0 1-2 2H4.25a2 2 0 0 1-2-2v-16.7h19.7v16.7zm0-18.7H2.25V8.85a2 2 0 0 1 2-2h15.7a2 2 0 0 1 2 2v16.7z"/><path d="M20.05 4.85h-2.2v-3.6a1 1 0 0 0-1-1h-9.4a1 1 0 0 0-1 1v3.6h-2.2a4 4 0 0 0-4 4v35.4a4 4 0 0 0 4 4h15.7a4 4 0 0 0 4-4V8.85a3.86 3.86 0 0 0-3.9-4zm-11.6-2.6h7.4v2.6h-7.4zm13.6 42a2 2 0 0 1-2 2H4.25a2 2 0 0 1-2-2v-16.7h19.7v16.7zm0-18.7H2.25V8.85a2 2 0 0 1 2-2h15.7a2 2 0 0 1 2 2v16.7z" fill="none" stroke="#000" stroke-miterlimit="10" stroke-width=".5"/><path d="M12.15 42a.94.94 0 0 0 1-1v-8.2a1 1 0 0 0-2 0V41a.94.94 0 0 0 1 1"/><path d="M12.15 42a.94.94 0 0 0 1-1v-8.2a1 1 0 0 0-2 0V41a.94.94 0 0 0 1 1z" fill="none" stroke="#000" stroke-miterlimit="10" stroke-width=".5"/><path d="M16.25 15.15h-3.1v-3.1a1 1 0 0 0-2 0v3.1H8a1 1 0 0 0 0 2h3.1v3.1a1 1 0 0 0 2 0v-3.1h3.1a.94.94 0 0 0 1-1 1.08 1.08 0 0 0-1-1"/><path d="M16.25 15.15h-3.1v-3.1a1 1 0 0 0-2 0v3.1H8a1 1 0 0 0 0 2h3.1v3.1a1 1 0 0 0 2 0v-3.1h3.1a.94.94 0 0 0 1-1 1.08 1.08 0 0 0-.95-1z" fill="none" stroke="#000" stroke-miterlimit="10" stroke-width=".5"/></g></svg>