<svg xmlns="http://www.w3.org/2000/svg" viewBox="0 0 90 90"><defs><clipPath id="a"><path fill="none" d="M0 0h90v90H0z"/></clipPath></defs><title>catalog-item-1</title><g data-name="Layer 1"><path d="M43 0h4v15h-4zM75 43h15v4H75zM0 43h15v4H0zM43 75h4v15h-4zM11.763 14.577l2.828-2.829 10.607 10.607-2.828 2.828zM64.803 22.395L75.41 11.79l2.828 2.828-10.606 10.607zM11.76 75.383l10.607-10.607 2.829 2.829L14.589 78.21zM64.801 67.645l2.829-2.828 10.606 10.606-2.828 2.829z"/><g clip-path="url(#a)"><path d="M45 34a11 11 0 1 0 11 11 11 11 0 0 0-11-11"/></g></g></svg>