<svg xmlns="http://www.w3.org/2000/svg" viewBox="0 0 88.91 65.47"><defs><clipPath id="a"><path fill="none" d="M0 0h88.91v65.47H0z"/></clipPath></defs><title>catalog-item-10</title><g clip-path="url(#a)" data-name="Layer 1"><path d="M82.8 19.37h-6.93a2.25 2.25 0 0 0-2.26 2.26v5.05h-3.87v-7a2.25 2.25 0 0 0-2.25-2.25h-10v-4.81a2.26 2.26 0 0 0-2.26-2.25H44.81V4.51h8.53a2.255 2.255 0 1 0 0-4.51H22.7a2.255 2.255 0 1 0 0 4.51h8.88v5.86H22.7a2.26 2.26 0 0 0-2.25 2.25v4.82h-8.2A2.25 2.25 0 0 0 10 19.7V34H4.51V19.71a2.255 2.255 0 1 0-4.51 0v33.47a2.255 2.255 0 1 0 4.51 0v-14.7H10v14.7a2.25 2.25 0 0 0 2.26 2.26h21.07l7.54 9.2a2.25 2.25 0 0 0 1.74.83h24.87a2.25 2.25 0 0 0 2.25-2.26v-10.9h3.88v5.8a2.26 2.26 0 0 0 2.26 2.26h6.93a2.26 2.26 0 0 0 2.11-1.45c8.94-23.32.19-37.87-.19-38.48a2.25 2.25 0 0 0-1.92-1.07M36.09 4.51h4.21v5.86h-4.21zm45.14 51.35h-3.1v-5.8a2.25 2.25 0 0 0-2.25-2.26h-8.4a2.25 2.25 0 0 0-2.26 2.26V61H43.69l-7.54-9.2a2.25 2.25 0 0 0-1.75-.83H14.51V22h8.2A2.25 2.25 0 0 0 25 19.7v-4.82h28v4.82a2.25 2.25 0 0 0 2.18 2.3h10v7a2.25 2.25 0 0 0 2.26 2.26h6.13v7.89a2.255 2.255 0 1 0 4.51 0V23.88h3.31c1.62 3.43 5.84 15-.21 32"/><path d="M46.27 32h-7.54L44 22.92a2.292 2.292 0 1 0-4-2.24l-7.11 12.47a2.26 2.26 0 0 0 2 3.38h7.31L36.9 45a2.257 2.257 0 0 0 3.83 2.39l7.46-11.94A2.26 2.26 0 0 0 46.27 32"/></g></svg>