<svg xmlns="http://www.w3.org/2000/svg" viewBox="0 0 50.07 90"><defs><clipPath id="a" transform="translate(-.06 -.05)"><path transform="rotate(-.1 28.608 45.862)" fill="none" d="M.08.04h50v90h-50z"/></clipPath></defs><title>catalog-item-4</title><g clip-path="url(#a)" data-name="Layer 1"><path d="M24.94-.05c-3.35 0-6.11 1.75-7.09 4.23a9 9 0 0 0-2.91-.42c-4.21 0-7.5 2.76-7.49 6.26v8.68C2.86 22.23-.06 27.13 0 32.54l.07 38.13a17.09 17.09 0 0 0 6.27 12.78 26.22 26.22 0 0 0 10 5.33 31.41 31.41 0 0 0 8.76 1.17c13.78 0 25-8.74 25-19.42L50 32.45c0-5.41-2.89-10.3-7.52-13.81V9.96c0-3.5-3.31-6.24-7.51-6.24a9 9 0 0 0-2.9.47c-1.01-2.46-3.78-4.24-7.13-4.24m.15 85c-11 0-20-6.41-20-14.34V44.1c4.57 4.7 11.84 7.74 20 7.73s15.43-3.08 20-7.8v26.51c0 7.93-8.95 14.39-20 14.41M28.7 6.24c0 1.35-1.76 2.5-3.76 2.51s-3.74-1.14-3.74-2.5 1.74-2.5 3.74-2.5 3.75 1.14 3.75 2.49m6.25 1.24c2 0 3.75 1.14 3.75 2.49s-1.71 2.5-3.75 2.51-3.73-1.14-3.73-2.53 1.73-2.47 3.73-2.47m-23.69 35v-21a7.47 7.47 0 0 0 7.49 0 122.17 122.17 0 0 1-2 16c-.41 2.44-.86 5-1.33 7.62a21.11 21.11 0 0 1-4.25-2.24 1.2 1.2 0 0 0 .07-.36m13.76 4.35a26.85 26.85 0 0 1-7.18-1c.53-2.92 1-5.74 1.46-8.4.8-4.79 1.41-9 1.71-12.39a7.22 7.22 0 0 0 4 1.13 7.36 7.36 0 0 0 3.5-.87c-.32 3.3-.94 7.49-1.72 12.11-.5 3-1.06 6.15-1.64 9.37h-.1M14.94 15.01c2 0 3.75 1.14 3.75 2.49s-1.71 2.5-3.75 2.51-3.75-1.14-3.75-2.49 1.75-2.5 3.75-2.51m23.75 2.46c0 1.36-1.71 2.5-3.75 2.51s-3.75-1.14-3.75-2.49 1.75-2.54 3.75-2.54 3.75 1.14 3.75 2.49m-13.75 6.31c-2 0-3.75-1.14-3.75-2.49s1.75-2.51 3.75-2.51 3.75 1.14 3.75 2.49-1.68 2.5-3.75 2.51m3.73-10c0 1.36-1.71 2.5-3.75 2.51s-3.75-1.14-3.75-2.49 1.77-2.52 3.77-2.52 3.75 1.14 3.75 2.49m.59 23.75a119.08 119.08 0 0 0 1.91-16 7.27 7.27 0 0 0 3.76 1 7.35 7.35 0 0 0 3.51-.87c-.38 4.12-1.2 9.71-2.2 15.87-.39 2.4-.81 4.89-1.23 7.42a25.39 25.39 0 0 1-7.36 1.83c.58-3.22 1.13-6.32 1.61-9.23m-10.57-27.5c0 1.36-1.71 2.5-3.75 2.51s-3.75-1.14-3.75-2.49 1.73-2.51 3.73-2.52 3.75 1.14 3.75 2.49m20.15 32.83c-.33.23-.66.45-1 .67q.49-2.88.93-5.62v4.59a1.26 1.26 0 0 0 .07.36M8.75 32.52v8.35a11.83 11.83 0 0 1-3.77-8.34 11.83 11.83 0 0 1 3.73-8.35zM45 32.45a11.83 11.83 0 0 1-3.73 8.36v-16.7a11.83 11.83 0 0 1 3.77 8.34"/></g></svg>