<svg xmlns="http://www.w3.org/2000/svg" viewBox="0 0 36 36"><title>catalog-item-5</title><path d="M2.56.5h30.88a2.07 2.07 0 0 1 2.06 2.06v30.88a2.07 2.07 0 0 1-2.06 2.06H2.56A2.07 2.07 0 0 1 .5 33.44V2.56A2.07 2.07 0 0 1 2.56.5zm30.94 33v-31h-31v31zM6.5 18A11.5 11.5 0 1 1 18 29.5 11.5 11.5 0 0 1 6.5 18zm21 0a9.5 9.5 0 1 0-9.5 9.5 9.5 9.5 0 0 0 9.5-9.5zm-14 2.5a2 2 0 1 0-2-2 2 2 0 0 0 2 2zm9 0a2 2 0 1 0-2-2 2 2 0 0 0 2 2z" fill="#7f9091" stroke="#7f9091" stroke-miterlimit="10" data-name="Слой 1"/></svg>