<svg xmlns="http://www.w3.org/2000/svg" viewBox="0 0 184.36 184.36"><defs><clipPath id="a"><path fill="none" d="M0 0h184.36v184.36H0z"/></clipPath></defs><title>checkout-error</title><g clip-path="url(#a)" fill="red" data-name="Layer 1"><path d="M92.18 184.36a92.18 92.18 0 1 1 92.18-92.18 92.29 92.29 0 0 1-92.18 92.18m0-168.8a76.62 76.62 0 1 0 76.62 76.62 76.71 76.71 0 0 0-76.62-76.62"/><path d="M51.84 132.53a8.26 8.26 0 0 1 0-11.65l69-69a8.24 8.24 0 0 1 11.65 11.65l-69 69a8.26 8.26 0 0 1-11.65 0"/><path d="M132.53 132.53a8.26 8.26 0 0 0 0-11.65l-69-69a8.24 8.24 0 0 0-11.69 11.61l69 69a8.26 8.26 0 0 0 11.65 0"/></g></svg>