<svg xmlns="http://www.w3.org/2000/svg" viewBox="0 0 66.5 42.04"><defs><clipPath id="a"><path fill="none" d="M0 0h66.5v42.04H0z"/></clipPath></defs><title>envelope</title><g clip-path="url(#a)" data-name="Layer 1"><path d="M62.4 0L4.11.06C1.8.06 0 2.23 0 5v32.08c0 2.78 1.8 5 4.1 5h58.3c2.3 0 4.1-2.18 4.1-5V5c0-2.78-1.8-5-4.1-5M3.5 5.79L22.89 21 3.5 36.31zm29.75 19L6.32 3.55l53.93-.05zm-7.53-1.47l6.44 5.07a1.75 1.75 0 0 0 2.16 0l6.44-5.07 19.4 15.27H6.32zM43.61 21L63 5.79v30.52z" fill="#3eaeb7"/></g></svg>