<svg xmlns="http://www.w3.org/2000/svg" viewBox="0 0 54 50"><defs><clipPath id="a"><path fill="none" d="M3 1h48v48H3z"/></clipPath><clipPath id="b"><path d="M27.68 8.48A11.46 11.46 0 0 1 36 5c7.28 0 13 5.95 13 14.32 0 5-2.47 9.19-7 13.7-1 1-4 3.72-4.12 3.85q-.64.61-1.37 1.26c-.6.53-1.25 1.08-1.94 1.65-1.4 1.15-2.89 2.31-4.39 3.42l-1.44 1.06-.56.4a2 2 0 0 1-2.3 0l-.56-.4-1.44-1.06c-1.49-1.11-3-2.27-4.39-3.42-.69-.56-1.33-1.11-1.94-1.65s-.95-.85-1.37-1.26C16 36.73 13 34 12 33c-4.56-4.5-7-8.68-7-13.7C5 10.95 10.72 5 18 5a11.46 11.46 0 0 1 8.32 3.48c.24.24.47.49.68.73.21-.24.44-.48.68-.73zM27.77 40a96.729 96.729 0 0 0 6.06-4.85c.57-.49.87-.79 1.26-1.15.19-.18 3.15-2.89 4.07-3.8C43 26.34 45 23 45 19.32 45 13.12 41 9 36 9a7.5 7.5 0 0 0-5.49 2.31A9.48 9.48 0 0 0 29.2 13a6.08 6.08 0 0 0-.37.65 2 2 0 0 1-3.65 0 6.08 6.08 0 0 0-.38-.65 9.48 9.48 0 0 0-1.31-1.64A7.5 7.5 0 0 0 18 9c-5 0-9 4.12-9 10.32 0 3.7 2 7 5.84 10.85.92.91 3.88 3.62 4.07 3.8q.58.55 1.26 1.15c.57.5 1.18 1 1.83 1.55 1.34 1.1 2.79 2.22 4.23 3.3l.77.57.77-.57z" fill="none" clip-path="url(#a)"/></clipPath></defs><title>like</title><g clip-path="url(#b)" data-name="Layer 1"><path d="M0 0h54v50H0z"/></g></svg>