<svg xmlns="http://www.w3.org/2000/svg" viewBox="0 0 864 863.9"><title>present</title><g data-name="Layer 1" fill="none" stroke="#3eaeb7" stroke-miterlimit="10" stroke-width="80"><path d="M761 413.9v373.9c0 19.5-16.2 36.1-35.7 36.1H139.6c-19.5 0-36.6-16.6-36.6-36.1V413.9zM824 295.9v82.5c0 19.5-15.3 35.5-34.8 35.5H75.7A35.81 35.81 0 0 1 40 378.4v-82.5c0-19.5 16.2-34 35.7-34h713.5c19.5 0 34.8 14.5 34.8 34zM432 261.9v562M620.2 167.6c0 51.9-41.9 94.3-93.8 94.3H433v-94.5a93.59 93.59 0 0 1 93.6-93.9c51.9 0 93.6 42.2 93.6 94.1z"/><path d="M211.2 150.9c0 61.1 49.3 111 110.5 111h111.4V150.6C433.1 89.5 383.3 40 322.2 40s-111 49.8-111 110.9z"/></g></svg>