<svg xmlns="http://www.w3.org/2000/svg" viewBox="0 0 60 59.01"><title>receipt</title><path d="M56 0H4a4 4 0 0 0-1 7.8V56l3-3 6 6 6-6 6 6 6-6 6 6 6-6 6 6 6-6 3 3V7.8A4 4 0 0 0 56 0zm-1 51.23l-1-1-6 6-6-6-6 6-6-6-6 6-6-6-6 6-6-6-1 1V5h50zm2-45.54V3H3v2.69A2 2 0 0 1 4 2h52a2 2 0 0 1 1 3.71zm-13 34H29a1 1 0 1 0 0 2h15a1 1 0 1 0 0-2zm4.29.29a1 1 0 0 0-.29.71 1 1 0 0 0 .29.71 1 1 0 0 0 1.42 0 1 1 0 0 0 .29-.71 1 1 0 0 0-.29-.71 1.05 1.05 0 0 0-1.42.02zM49 25.82H34a1 1 0 1 0 0 2h15a1 1 0 1 0 0-2zm0 7H39a1 1 0 1 0 0 2h10a1 1 0 1 0 0-2zm-20 2h2a1 1 0 1 0 0-2h-2a1 1 0 1 0 0 2zm16-14.9a1 1 0 0 0-1-1H29a1 1 0 1 0 0 2h15a1 1 0 0 0 1-1.06zm3.29-.71a1 1 0 0 0-.29.71 1 1 0 0 0 .29.71 1.06 1.06 0 0 0 .71.29 1 1 0 0 0 .71-1.7 1.05 1.05 0 0 0-1.42-.06zm-19 7a1 1 0 0 0 0 1.41 1 1 0 0 0 1.42 0 1 1 0 0 0 0-1.41 1.05 1.05 0 0 0-1.42-.1zm6.42 8.36a1 1 0 0 0 .29-.71 1 1 0 0 0-.29-.71 1.05 1.05 0 0 0-1.42 0 1 1 0 0 0 0 1.41 1 1 0 0 0 1.42 0zM15 36.87v.87a1 1 0 0 0 2 0v-.88a5 5 0 0 0 2.82-1.66 3.41 3.41 0 0 0 .79-2.59 3.62 3.62 0 0 0-1.38-2.47L17 28.43V23a3 3 0 0 1 2 2.8 1 1 0 0 0 2 0 5 5 0 0 0-4-4.8v-1.14a1 1 0 0 0-2 0V21a5 5 0 0 0-2.82 1.66 3.4 3.4 0 0 0-.79 2.58 3.62 3.62 0 0 0 1.38 2.47L15 29.4v5.4a3 3 0 0 1-2-2.8 1 1 0 0 0-2 0 5 5 0 0 0 4 4.87zm2-5.93l1 .77a1.63 1.63 0 0 1 .62 1.11 1.44 1.44 0 0 1-.33 1.1 3 3 0 0 1-1.29.87zm-3-4.83a1.63 1.63 0 0 1-.62-1.11 1.44 1.44 0 0 1 .33-1.1A3 3 0 0 1 15 23v3.85zm38-14.19a1 1 0 1 0-1-1 1 1 0 0 0 1 1zm-12 0a1 1 0 1 0-1-1 1 1 0 0 0 1 1zm-20 0a1 1 0 1 0-1-1 1 1 0 0 0 1 1zm24 0a1 1 0 1 0-1-1 1 1 0 0 0 1 1zm-16 0a1 1 0 1 0-1-1 1 1 0 0 0 1 1zm20 0a1 1 0 1 0-1-1 1 1 0 0 0 1 1zm-12 0a1 1 0 1 0-1-1 1 1 0 0 0 1 1zm-12 0a1 1 0 1 0-1-1 1 1 0 0 0 1 1zm-12 0a1 1 0 1 0-1-1 1 1 0 0 0 1 1zm-4 0a1 1 0 1 0-1-1 1 1 0 0 0 1 1zm24 0a1 1 0 1 0-1-1 1 1 0 0 0 1 1zm-16 0a1 1 0 1 0-1-1 1 1 0 0 0 1 1z" fill="#616379" data-name="Layer 1"/></svg>