<svg xmlns="http://www.w3.org/2000/svg" viewBox="0 0 70.29 74.13"><defs><clipPath id="a"><path fill="none" d="M0 0h70.29v74.13H0z"/></clipPath></defs><title>service-benefit-3</title><g clip-path="url(#a)" data-name="Icon Set"><path d="M56.75 1.5h-43.2s-3.49 24.75 14.91 43.62h13.37C60.24 26.25 56.75 1.5 56.75 1.5z" fill="none" stroke="#344154" stroke-linejoin="round" stroke-width="3"/><path d="M31.08 39.12C21.27 27.9 19.48 14.64 19.31 7.5H51c-.17 7.13-2 20.39-11.77 31.62z" fill="#ffc124"/><path d="M57.44 10.47h11.35s-1.16 15.45-15.21 15.45M12.85 10.47H1.5s1.16 15.45 15.21 15.45M46.54 72.63H23.75a10.31 10.31 0 0 1 1.59-6 7.12 7.12 0 0 1 2.12-2.14c2.11-1.36 4.41-3.61 4.75-6.26.64-5-3.77-8.6-3.77-8.6l.2-4.54h13.07l.2 4.54s-4.45 3.56-3.81 8.6c.33 2.65 2.64 4.9 4.75 6.26A7.15 7.15 0 0 1 45 66.66a10.31 10.31 0 0 1 1.54 5.97z" fill="none" stroke="#344154" stroke-linejoin="round" stroke-width="3"/><path fill="none" stroke="#344154" stroke-linecap="round" stroke-linejoin="round" stroke-width="3" d="M18.43 72.63h33.43"/></g></svg>