<svg xmlns="http://www.w3.org/2000/svg" viewBox="0 0 121.17 112.67"><defs><clipPath id="a"><path fill="none" d="M0 0h121.17v112.67H0z"/></clipPath></defs><title>service-benefit-5</title><g clip-path="url(#a)" data-name="Icon Set"><path d="M11.78 111.17v-3.08a10.83 10.83 0 0 1 5.48-20.17V36.05H1.5v75.12z" fill="#ffc124"/><path fill="none" stroke="#344154" stroke-linecap="round" stroke-linejoin="round" stroke-width="3" d="M97.98 94.51h-6.97M102.6 76.4H92.34M106.02 58.24H93.57M1.5 111.17h27.69a3.84 3.84 0 0 0 3.81-3.83V39.89a3.84 3.84 0 0 0-3.84-3.84H1.5z"/><path d="M33 105.69A414.15 414.15 0 0 0 97.67 111c4.83 0 9.36-2.61 9.36-8.24 0-4.64-3.84-8.29-9.05-8.29h3.89a9.28 9.28 0 0 0 9.37-8.47 9.07 9.07 0 0 0-9.05-9.68h3.89a9.28 9.28 0 0 0 9.36-8.47 9.07 9.07 0 0 0-9.05-9.68h3.89a9.28 9.28 0 0 0 9.36-8.47 9.07 9.07 0 0 0-9.05-9.68h-33.1a4.35 4.35 0 0 1-4.26-5.26A44.17 44.17 0 0 0 69.76 5.7c-3.36-7-13.86-4.73-14 3C55.27 35 33 41.95 33 41.95" fill="none" stroke="#344154" stroke-linecap="round" stroke-linejoin="round" stroke-width="3"/><circle cx="17.26" cy="98.76" r="5.35" fill="none" stroke="#344154" stroke-linecap="round" stroke-linejoin="round" stroke-width="3"/><path fill="none" stroke="#344154" stroke-linecap="round" stroke-linejoin="round" stroke-width="3" d="M17.26 104.1v7.07"/></g></svg>