<svg xmlns="http://www.w3.org/2000/svg" viewBox="0 0 83.84 125.83"><defs><clipPath id="a"><path fill="none" d="M0 0h83.84v125.83H0z"/></clipPath></defs><title>service-benefit-2</title><g clip-path="url(#a)" data-name="Icon Set"><path d="M48.45 8.42V8a6.53 6.53 0 1 0-13.06 0v.39" fill="none" stroke="#344154" stroke-miterlimit="10" stroke-width="3"/><path d="M28.08 10.24V24a2.35 2.35 0 0 0 2.35 2.35h.94a2.35 2.35 0 0 0 2.33-2v-.29a8.24 8.24 0 0 1 16.34 0v.29a2.35 2.35 0 0 0 4.69-.3V10.24A1.82 1.82 0 0 0 53 8.42H29.9a1.82 1.82 0 0 0-1.82 1.82" fill="#35b0cb"/><path d="M28.08 13.92H7.87a6.37 6.37 0 0 0-6.37 6.37V118a6.37 6.37 0 0 0 6.37 6.37H76a6.37 6.37 0 0 0 6.34-6.37V20.29A6.37 6.37 0 0 0 76 13.92H54.82" fill="none" stroke="#344154" stroke-miterlimit="10" stroke-width="3"/><path fill="none" stroke="#344154" stroke-miterlimit="10" stroke-width="3" d="M25.88 23.36H10.94v91.54h47.98l13.98-13.99V23.36H57.96"/><path fill="none" stroke="#344154" stroke-miterlimit="10" stroke-width="3" d="M34.69 62.33l-7.49 7.93-3.62-3.62M23.95 48.21l8.93-8.92M32.88 48.21l-8.93-8.92M23.95 94.2l8.93-8.92M32.88 94.2l-8.93-8.92M39.25 48.21h25.83M39.25 70.79h25.83"/><path fill="none" stroke="#344154" stroke-linecap="round" stroke-miterlimit="10" stroke-width="3" d="M55.93 109.22V97.93h11.29"/></g></svg>