<svg xmlns="http://www.w3.org/2000/svg" viewBox="0 0 117.83 128.88"><title>service-benefit-4</title><g data-name="Icon Set"><path d="M78 89.59c-22.08 0-33.3-7.7-33.33-22.89A33.29 33.29 0 0 1 51.4 47l13.83-18.63h25.53L104.6 47a33.28 33.28 0 0 1 6.73 19.73C111.3 81.89 100.08 89.59 78 89.59z" fill="#fbc500"/><path d="M106.73 87.35c7.48-5.58 9.58-13.51 9.6-20.64A38.1 38.1 0 0 0 108.61 44L93.28 23.37H62.72L47.39 44a38.1 38.1 0 0 0-7.72 22.72c0 7.88 2.59 16.75 12.16 22.32" fill="none" stroke="#344154" stroke-miterlimit="10" stroke-width="3"/><rect x="59.49" y="17.21" width="37.03" height="6.16" rx="2.37" ry="2.37" fill="none" stroke="#344154" stroke-miterlimit="10" stroke-width="3"/><path d="M88.63 3.57l-3 3-1.28-1.33a8.74 8.74 0 0 0-12.35 0l-1.31 1.31-3-3a7.07 7.07 0 0 0-10 0L54 7.26l10.27 9.95h27.79l10.27-9.95-3.69-3.69a7.07 7.07 0 0 0-10.01 0zM64.81 105h5.35a25.51 25.51 0 0 0 14.32-4.4l3.91-2.65a1.44 1.44 0 0 0 .44-2 6.73 6.73 0 0 0-2.24-2.09 6.62 6.62 0 0 0-6.24 0 17 17 0 0 1-13.7.55 44.23 44.23 0 0 0-6.72-3.48 28.25 28.25 0 0 0-27 3.31" fill="none" stroke="#344154" stroke-miterlimit="10" stroke-width="3"/><path d="M32.89 113s12.1-2.35 33.26-1.14a30.77 30.77 0 0 0 16.09-3.54l32.18-17a1.27 1.27 0 0 0 .4-1.91c-1.15-1.47-3.77-3.52-9-2.13a12.74 12.74 0 0 0-1.74.62l-16.19 6.9M20.67 120.74h11.9V90.03h-11.9" fill="none" stroke="#344154" stroke-miterlimit="10" stroke-width="3"/><path fill="#3eaeb7" d="M0 81.05h20.67v47.83H0z"/><text transform="translate(67.76 72.24)" font-size="41.822" fill="#344154" font-family="MyriadPro-Regular,Myriad Pro">ла</text><path fill="#344154" d="M69.11 63.7h13.33v2.92H69.11z"/></g></svg>