<svg xmlns="http://www.w3.org/2000/svg" viewBox="0 0 133.73 90.75"><defs><clipPath id="a"><path fill="none" d="M0 0h133.73v90.75H0z"/></clipPath></defs><title>user-link-5</title><g data-name="Icon Set"><path fill="#35b0cb" d="M23.82 18.37h32.6v16.19h-32.6z"/><path fill="none" stroke="#344154" stroke-linecap="round" stroke-linejoin="round" stroke-width="3" d="M23.82 42h32.6M23.82 50.53h32.6M23.82 59.07h32.6"/><g clip-path="url(#a)"><path d="M127.65 89.25H6.08a4.58 4.58 0 0 1-4.58-4.59v-5.51h130.73v5.52a4.58 4.58 0 0 1-4.58 4.58z" fill="none" stroke="#344154" stroke-linecap="round" stroke-linejoin="round" stroke-width="3"/><path d="M119.39 1.5H14.34A4.32 4.32 0 0 0 10 5.82v73.33h113.71V5.82a4.32 4.32 0 0 0-4.32-4.32z" fill="none" stroke="#344154" stroke-linecap="round" stroke-linejoin="round" stroke-width="3"/><path d="M98.54 38.2a2.07 2.07 0 0 0-1.46-1.68l-3.31-.72a8.26 8.26 0 0 1-3.94 2 8.26 8.26 0 0 1-3.94-2l-3.31.72a2.07 2.07 0 0 0-1.46 1.68l-.72 3.44h18.86zM94 30.58a4.2 4.2 0 1 1-8.37 0 4.2 4.2 0 1 1 8.37 0" fill="#35b0cb"/><path fill="none" stroke="#344154" stroke-linecap="round" stroke-linejoin="round" stroke-width="3" d="M77.1 17.64h25.44v25.44H77.1z"/></g></g></svg>