<svg xmlns="http://www.w3.org/2000/svg" viewBox="0 0 104.61 118.12"><defs><clipPath id="a"><path fill="none" d="M0 0h104.61v118.12H0z"/></clipPath></defs><title>user-link-2</title><g data-name="Icon Set"><path fill="none" stroke="#344154" stroke-linejoin="round" stroke-width="3" d="M36.18 8.36h17.13"/><g clip-path="url(#a)"><path d="M54.13 116.62H8.34a6.84 6.84 0 0 1-6.84-6.84V8.34A6.84 6.84 0 0 1 8.34 1.5h72.81A6.84 6.84 0 0 1 88 8.34v32.52" fill="none" stroke="#344154" stroke-linecap="round" stroke-linejoin="round" stroke-width="3"/><path fill="none" stroke="#344154" stroke-linejoin="round" stroke-width="3" d="M36.18 109.76h17.13"/><path fill="none" stroke="#344154" stroke-linecap="round" stroke-linejoin="round" stroke-width="3" d="M1.5 15.23h86.49M53.31 102.9H1.5"/><path d="M19.53 36.55h-5.35A3.23 3.23 0 0 1 11 33.33V28a3.23 3.23 0 0 1 3.23-3.23h5.35A3.23 3.23 0 0 1 22.76 28v5.35a3.23 3.23 0 0 1-3.23 3.23M37.83 36.55h-5.34a3.23 3.23 0 0 1-3.23-3.23V28a3.23 3.23 0 0 1 3.23-3.23h5.35A3.23 3.23 0 0 1 41.06 28v5.35a3.23 3.23 0 0 1-3.23 3.23M56.14 36.55h-5.35a3.23 3.23 0 0 1-3.23-3.23V28a3.23 3.23 0 0 1 3.23-3.23h5.35A3.23 3.23 0 0 1 59.37 28v5.35a3.23 3.23 0 0 1-3.23 3.23M19.53 55.65h-5.35A3.23 3.23 0 0 1 11 52.42v-5.35a3.23 3.23 0 0 1 3.23-3.23h5.35a3.23 3.23 0 0 1 3.23 3.23v5.35a3.23 3.23 0 0 1-3.23 3.23M37.83 55.65h-5.34a3.23 3.23 0 0 1-3.23-3.23v-5.35a3.23 3.23 0 0 1 3.23-3.23h5.35a3.23 3.23 0 0 1 3.23 3.23v5.35a3.23 3.23 0 0 1-3.23 3.23M19.53 74.74h-5.35A3.23 3.23 0 0 1 11 71.52v-5.35a3.23 3.23 0 0 1 3.23-3.23h5.35a3.23 3.23 0 0 1 3.23 3.23v5.35a3.23 3.23 0 0 1-3.23 3.23M37.83 74.74h-5.34a3.23 3.23 0 0 1-3.23-3.23v-5.34a3.23 3.23 0 0 1 3.23-3.23h5.35a3.23 3.23 0 0 1 3.23 3.23v5.35a3.23 3.23 0 0 1-3.23 3.23" fill="#ffc124"/><path d="M76.35 58.35V47h4.46a4.46 4.46 0 0 1 4.46 4.46M103.08 67.38a88.72 88.72 0 0 1-4.21 24.88 45.28 45.28 0 0 0-1.24 4.65H78.47M76.35 47V35.11a4.46 4.46 0 1 0-8.92 0v33l-3.08-8A5.29 5.29 0 0 0 54.13 62a29.63 29.63 0 0 0 4.15 15.22 34.21 34.21 0 0 0 3.8 5.23C67.56 88.6 69 96.9 69 96.9M85.27 61.68V50.29h4.46a4.46 4.46 0 0 1 4.46 4.46v10.8M94.19 56h4.46a4.46 4.46 0 0 1 4.46 4.46v6.93M65.51 102.9h34.58v13.73H65.51z" fill="none" stroke="#344154" stroke-linecap="round" stroke-linejoin="round" stroke-width="3"/><circle cx="92.41" cy="109.76" r="1.29" fill="none" stroke="#344154" stroke-linecap="round" stroke-linejoin="round" stroke-width="3"/></g></g></svg>