<svg xmlns="http://www.w3.org/2000/svg" viewBox="0 0 54 54"><defs><clipPath id="a"><path fill="none" d="M3 3h48v48H3z"/></clipPath><clipPath id="b"><path d="M27 27a11 11 0 1 1 11-11 11 11 0 0 1-11 11zm0-4a7 7 0 1 0-7-7 7 7 0 0 0 7 7zm20.82 14.16a12.84 12.84 0 0 1 .81 3.32c.11.74.2 1.53.28 2.32 0 .27 0 .53.07.76V44a5 5 0 0 1-5 5H10a5 5 0 0 1-5-5v-.44c0-.23 0-.49.07-.76.08-.79.17-1.57.28-2.32a12.84 12.84 0 0 1 .81-3.32C7.72 33.83 19 29 27 29s19.28 4.83 20.82 8.16zM44 38.69a10.32 10.32 0 0 0-1.17-.86 29.08 29.08 0 0 0-4.19-2.16A30.86 30.86 0 0 0 27 33a30.86 30.86 0 0 0-11.62 2.67 29.08 29.08 0 0 0-4.19 2.16 10.32 10.32 0 0 0-1.17.86l-.24.23a12.5 12.5 0 0 0-.45 2.15c-.1.67-.18 1.39-.25 2.12 0 .37-.06.68-.08.87a1 1 0 0 0 1 .94h34a1 1 0 0 0 1-.95c0-.2 0-.5-.08-.87-.07-.73-.15-1.45-.25-2.12a12.5 12.5 0 0 0-.45-2.15l-.22-.22z" fill="none" clip-path="url(#a)"/></clipPath></defs><title>user</title><g clip-path="url(#b)" data-name="Layer 1"><path d="M0 0h54v54H0z"/></g></svg>