<svg xmlns="http://www.w3.org/2000/svg" viewBox="0 0 297.73 297.75"><defs><clipPath id="a"><path fill="none" d="M0 0h297.73v297.75H0z"/></clipPath><clipPath id="b"><path fill="none" d="M37.7 38.97h221.17v221.17H37.7z"/></clipPath><clipPath id="c"><path fill="none" d="M26.69 27.67h243.37v243.37H26.69z"/></clipPath><clipPath id="d"><path fill="none" d="M1.16 1.63h295.46v295.46H1.16z"/></clipPath></defs><title>user-status-bronze</title><g clip-path="url(#a)" data-name="Layer 1"><path d="M297.73 148.87a148.87 148.87 0 1 0-148.86 148.86 148.87 148.87 0 0 0 148.86-148.86" fill="#eaa557"/><path d="M268.14 148.87a119.28 119.28 0 1 0-119.27 119.28 119.28 119.28 0 0 0 119.27-119.28" fill="#c97b2d"/><path d="M257.69 148.87a108.82 108.82 0 1 0-108.82 108.82 108.82 108.82 0 0 0 108.82-108.82" fill="#eaa557"/><path d="M148.87 0a148.87 148.87 0 0 0 0 297.74h.54V0h-.54" fill="#cd863e"/><path d="M148.87 29.58a119.28 119.28 0 0 0 0 238.56h.55V29.59h-.53" fill="#eaa557"/><path d="M257.69 148.87a108.82 108.82 0 1 0-108.82 108.82 108.82 108.82 0 0 0 108.82-108.82" fill="#eaa557"/><path d="M148.87 40a108.82 108.82 0 1 0 0 217.64c.5 0 .14.05.64 0l-.12-217.68h-.52" fill="#cd863e"/><g clip-path="url(#b)" opacity=".251"><circle cx="148.28" cy="149.55" r="108.82" fill="none" stroke="#fff" stroke-linejoin="round" stroke-width="3.527"/></g><g clip-path="url(#c)" opacity=".251"><circle cx="148.38" cy="149.36" r="120.16" fill="none" stroke="#fff" stroke-linejoin="round" stroke-width="3.048"/></g><g clip-path="url(#d)" opacity=".62"><circle cx="148.89" cy="149.36" r="146.2" fill="none" stroke="#fff" stroke-linejoin="round" stroke-width="3.048"/></g></g></svg>