<svg xmlns="http://www.w3.org/2000/svg" viewBox="0 0 131.04 111.25"><title>user-link-1</title><g data-name="Icon Set"><path fill="#fdbf24" d="M46.53 33.67l3.72 15.81 16.05-1.15-3.92-15.14-15.85.48z"/><path d="M1.5 1.5h9.9a12.27 12.27 0 0 1 11.81 8.94l18.91 66.5a17.19 17.19 0 0 0 16.54 12.52h60" fill="none" stroke="#344154" stroke-linecap="round" stroke-linejoin="round" stroke-width="3"/><path d="M46.08 33.19l9.48 34.35h65.34l8.57-43.88a4.06 4.06 0 0 0-4-4.84H25.73M62.75 33.16l4.16 25.68M80.37 33.16v25.68M113.02 33.16l-4.16 25.68M95.4 33.16v25.68M46.08 33.19h66.94M50.25 48.33h60.32" fill="none" stroke="#344154" stroke-linecap="round" stroke-linejoin="round" stroke-width="3"/><circle cx="106.5" cy="103.28" r="6.47" fill="none" stroke="#344154" stroke-linecap="round" stroke-linejoin="round" stroke-width="3"/><circle cx="64" cy="103.28" r="6.47" fill="none" stroke="#344154" stroke-linecap="round" stroke-linejoin="round" stroke-width="3"/></g></svg>