<svg xmlns="http://www.w3.org/2000/svg" viewBox="0 0 197.18 232.6"><title>user-link-6</title><g data-name="Icon Set"><circle cx="142.87" cy="196.14" r="7.41" fill="#ffc124"/><circle cx="31.63" cy="172.61" r="7.41" fill="#35b0cb"/><circle cx="98.59" cy="67.12" r="64.12" fill="none" stroke="#344154" stroke-miterlimit="10" stroke-width="6"/><path d="M149.52 67.12a50.93 50.93 0 0 0-50.93-50.93" fill="none" stroke="#344154" stroke-linecap="round" stroke-miterlimit="10" stroke-width="3"/><path fill="none" stroke="#344154" stroke-miterlimit="10" stroke-width="5" d="M89.24 131.24v23.29h18.7v-23.29"/><path fill="none" stroke="#344154" stroke-linecap="round" stroke-miterlimit="10" stroke-width="3" d="M26.26 178.24L14.63 190.5M48.59 190.51l-11.62-12.25M71.69 177.43L59.3 190.49"/><circle cx="9.28" cy="196.14" r="7.78" fill="none" stroke="#344154" stroke-linecap="round" stroke-miterlimit="10" stroke-width="3"/><circle cx="31.63" cy="172.61" r="7.78" fill="none" stroke="#344154" stroke-linecap="round" stroke-miterlimit="10" stroke-width="3"/><circle cx="53.95" cy="196.14" r="7.78" fill="none" stroke="#344154" stroke-linecap="round" stroke-miterlimit="10" stroke-width="3"/><path d="M115 205.21V160.5a6 6 0 0 0-6-6H88.19a6 6 0 0 0-6 6v44.71" fill="none" stroke="#344154" stroke-linecap="round" stroke-miterlimit="10" stroke-width="6"/><path d="M82.23 205.21v18.42a6 6 0 0 0 6 6H109a6 6 0 0 0 6-6v-18.42" fill="none" stroke="#344154" stroke-linecap="round" stroke-miterlimit="10" stroke-width="6"/><path fill="none" stroke="#344154" stroke-linecap="round" stroke-miterlimit="10" stroke-width="3" d="M170.92 178.24l11.63 12.26M148.59 190.51l11.62-12.25M125.49 177.43l12.4 13.06"/><circle cx="187.9" cy="196.14" r="7.78" fill="none" stroke="#344154" stroke-linecap="round" stroke-miterlimit="10" stroke-width="3"/><circle cx="165.55" cy="172.61" r="7.78" fill="none" stroke="#344154" stroke-linecap="round" stroke-miterlimit="10" stroke-width="3"/><circle cx="143.23" cy="196.14" r="7.78" fill="none" stroke="#344154" stroke-linecap="round" stroke-miterlimit="10" stroke-width="3"/><text transform="translate(79.64 96.5)" font-size="71.937" fill="#344154" font-family="Panton-Regular,Panton Regular">?</text></g></svg>