<svg xmlns="http://www.w3.org/2000/svg" viewBox="0 0 33.86 29.56"><title>user-link-4</title><g data-name="Icon Set"><path d="M16.93 29.56l-.59-.48C3.48 18.61 0 14.92 0 8.93A8.94 8.94 0 0 1 8.93 0c4.11 0 6.44 2.34 8 4.09 1.56-1.75 3.89-4.09 8-4.09a8.94 8.94 0 0 1 8.93 8.93c0 6-3.48 9.68-16.34 20.15l-.59.48zm-8-27.7a7.08 7.08 0 0 0-7.07 7.07c0 5.13 3.23 8.56 15.07 18.23C28.77 17.49 32 14.06 32 8.93a7.08 7.08 0 0 0-7.07-7.07C21.36 1.86 19.5 4 18 5.69L16.93 6.9l-1.07-1.2C14.36 4 12.5 1.86 8.93 1.86z" fill="#344154"/><rect x="11.25" y="14.83" width="2.38" height="9.84" rx="1.19" ry="1.19" transform="rotate(-47.64 12.432 19.752)" fill="#fdbf24"/></g></svg>