<svg xmlns="http://www.w3.org/2000/svg" viewBox="0 0 94.9 121.63"><defs><clipPath id="a"><path fill="none" d="M0 0h94.9v121.63H0z"/></clipPath></defs><title>user-link-3</title><g clip-path="url(#a)" data-name="Icon Set"><path d="M27.68 23.73c0-2.91-5.28-10.13-5.28-10.13s-5.28 7.22-5.28 10.13a5.28 5.28 0 1 0 10.55 0" fill="#ffc124"/><path fill="none" stroke="#344154" stroke-miterlimit="10" stroke-width="3" d="M10.11 10.11h24.58v24.58H10.11zM8.7 43.38h56.75M8.7 52.39h56.75M8.7 61.41h56.75M42.45 10.11h23M42.45 19.13h23M8.7 70.43h56.75"/><path d="M72.92 79.16V1.5H1.5v98.14h50.93a20.48 20.48 0 0 1 20.49-20.48zM27.68 90.58H8.7" fill="none" stroke="#344154" stroke-miterlimit="10" stroke-width="3"/><path d="M70.76 92.42a5.23 5.23 0 0 0-1-1.79 4.53 4.53 0 0 0-1.59-1.12 5 5 0 0 0-2-.39 5.11 5.11 0 0 0-2 .38 4.38 4.38 0 0 0-1.58 1.12 5.27 5.27 0 0 0-1 1.8 7.18 7.18 0 0 0-.37 2.39 7.31 7.31 0 0 0 .36 2.38 5.24 5.24 0 0 0 1 1.8 4.37 4.37 0 0 0 1.57 1.13 5.42 5.42 0 0 0 4 0A4.37 4.37 0 0 0 69.74 99a5.34 5.34 0 0 0 1-1.79 7.77 7.77 0 0 0 0-4.76m-4.63 5.27q-1.62 0-1.62-2.87t1.62-2.87q1.64 0 1.64 2.87t-1.64 2.87M80.13 89.45l-11.14 20.39h-3.34L76.8 89.45h3.33zM84.3 102.09a5.34 5.34 0 0 0-1-1.8 4.46 4.46 0 0 0-1.58-1.14 5 5 0 0 0-2-.4 5.07 5.07 0 0 0-2 .39 4.46 4.46 0 0 0-1.57 1.13 5.16 5.16 0 0 0-1 1.79 7.27 7.27 0 0 0-.37 2.39 7.37 7.37 0 0 0 .37 2.41 5.21 5.21 0 0 0 1 1.8 4.37 4.37 0 0 0 1.57 1.13 5.09 5.09 0 0 0 2 .39 5 5 0 0 0 2-.4 4.46 4.46 0 0 0 1.58-1.14 5.33 5.33 0 0 0 1-1.8 7.17 7.17 0 0 0 .37-2.38 7.06 7.06 0 0 0-.37-2.36m-4.62 5.26q-1.62 0-1.62-2.9t1.62-2.86q1.63 0 1.63 2.86t-1.63 2.9" fill="#344154"/><circle cx="72.92" cy="99.64" r="20.48" fill="none" stroke="#344154" stroke-miterlimit="10" stroke-width="3"/><path fill="#35b0cb" d="M8.7 79.16h18.98v6.38H8.7z"/></g></svg>