<svg xmlns="http://www.w3.org/2000/svg" viewBox="0 0 60 59.76"><title>wallet</title><path d="M9 11.76h2a1 1 0 1 0 0-2H9a1 1 0 1 0 0 2zm6 0h2a1 1 0 1 0 0-2h-2a1 1 0 1 0 0 2zm-9.49.54a1 1 0 0 0-.83-1.82 8 8 0 0 0-1.92 1.23 1 1 0 0 0 1.31 1.51 6 6 0 0 1 1.44-.92zM29 23.76h-2a1 1 0 1 0 0 2h2a1 1 0 1 0 0-2zm-23.49-.54a6 6 0 0 1-1.44-.92 1 1 0 1 0-1.31 1.5A8 8 0 0 0 4.68 25a1 1 0 1 0 .83-1.82zm35.49.54h-2a1 1 0 1 0 0 2h2a1 1 0 1 0 0-2zm12 0h-2a1 1 0 1 0 0 2h2a1 1 0 1 0 0-2zm-42 0H9a1 1 0 1 0 0 2h2a1 1 0 1 0 0-2zm36 0h-2a1 1 0 1 0 0 2h2a1 1 0 1 0 0-2zm-12 0h-2a1 1 0 1 0 0 2h2a1 1 0 1 0 0-2zm-12 0h-2a1 1 0 1 0 0 2h2a1 1 0 1 0 0-2zm-6 0h-2a1 1 0 1 0 0 2h2a1 1 0 1 0 0-2zm12 30h-2a1 1 0 0 0 0 2h2a1 1 0 0 0 0-2zm9 1a1 1 0 0 0 1 1h2a1 1 0 0 0 0-2h-2a1 1 0 0 0-1 1zm7 1h2a1 1 0 0 0 0-2h-2a1 1 0 0 0 0 2zm6 0h2a1 1 0 1 0 0-2h-2a1 1 0 1 0 0 2zM5.51 53.22a6 6 0 0 1-1.44-.92 1 1 0 1 0-1.31 1.5A8 8 0 0 0 4.68 55a1 1 0 0 0 .83-1.82zm11.49.54h-2a1 1 0 0 0 0 2h2a1 1 0 0 0 0-2zm-6 0H9a1 1 0 1 0 0 2h2a1 1 0 0 0 0-2zm24 0h-2a1 1 0 0 0 0 2h2a1 1 0 1 0 0-2zm-12 0h-2a1 1 0 1 0 0 2h2a1 1 0 1 0 0-2zm21-15a4 4 0 1 0 4-4 4 4 0 0 0-4 4zm4-2a2 2 0 1 1-2 2 2 2 0 0 1 2-2zm-5.06-31L37.51.32a1.17 1.17 0 0 0-1.61 0l-2 2-2-2a1.17 1.17 0 0 0-1.61 0l-5.53 5.44H8a8 8 0 0 0-8 8v38.85a7.16 7.16 0 0 0 7.15 7.15H60v-54zm-7.68-2l1.44-1.41 3.41 3.41 14 14h-5.39L37.46 8.49a1.08 1.08 0 0 0-.75-.31h-.47L24.68 19.76h-5.39l16-16zm10.63 16H27.51l9.19-9.19zm-18.31-14L31 2.35l1.44 1.44-13.68 13.67-2.3 2.3h-2.87l14-14zM8 7.76h14.76L20.7 9.82a1 1 0 0 0-.63.63l-1.4 1.4-7.9 7.9H8a6 6 0 0 1 0-12zm50 36H47a5 5 0 0 1 0-10h11zm0-20h-1a1 1 0 1 0 0 2h1v6H47a7 7 0 1 0 0 14h11v8h-1a1 1 0 0 0 0 2h1v2H7.15A5.16 5.16 0 0 1 2 52.61V50.4a1 1 0 0 0 .24-1A6 6 0 0 1 2 47.76V20.4a1 1 0 0 0 .24-1v-.2l.28.28.26.24.34.29.29.21.37.25.3.19.4.21.32.15.44.17.33.12.43.19.32.08.55.09h.28a8 8 0 0 0 .85 0h50zm0-4h-1.06l-8-8H49a1 1 0 1 0 0-2h-2l-2-2h13zm-5-8h2a1 1 0 1 0 0-2h-2a1 1 0 1 0 0 2z" fill="#616379" data-name="Layer 1"/></svg>